<?xml version="1.0" encoding="utf-8"?><svg viewBox="0 0 298 345" xmlns="http://www.w3.org/2000/svg" xmlns:xlink="http://www.w3.org/1999/xlink"><style>:root>svg{display:none}:root>svg:target{display:block}</style><svg fill="none" viewBox="0 0 22 16" id="checkbox-checked" xmlns="http://www.w3.org/2000/svg"><path d="M21.7.284a1.024 1.024 0 00-1.42 0L6.704 13.603 1.735 8.729a1.015 1.015 0 00-.72-.294 1.031 1.031 0 00-.72.294.985.985 0 000 1.403l5.688 5.58a1.016 1.016 0 00.72.288c.266-.001.521-.105.71-.289L21.7 1.697A.995.995 0 0022 .99a.978.978 0 00-.3-.707z" fill="#D22856"/></svg><svg fill="none" viewBox="0 0 298 345" id="clock-desktop" xmlns="http://www.w3.org/2000/svg"><path d="M264.59 102.03l5.35-5.35c7.72-7.72 9.13-18.94 3.13-24.93-6-5.99-17.22-4.6-24.93 3.12l-5.4 5.39a148.2 148.2 0 00-74.72-31.97V38.7h7.66c10.9 0 19.84-8.7 19.84-19.34S186.59 0 175.68 0h-53.32c-10.91 0-19.84 8.7-19.84 19.36 0 10.64 8.93 19.34 19.84 19.34h7.66v9.59a149.01 149.01 0 00-128.84 129 148.93 148.93 0 0092.54 157.08 149.04 149.04 0 00175.33-50.1 148.94 148.94 0 00-4.46-182.23zM149.02 306.19a110.19 110.19 0 01-101.79-68 110.12 110.12 0 0180.3-150.17 110.2 110.2 0 01113.1 46.85 110.12 110.12 0 01-13.72 139.07 110.18 110.18 0 01-77.9 32.25z" fill="#DEDEDE"/><circle cx="149" cy="196" r="117" stroke="#D22856" stroke-width="18"/><path d="M145.13 239H85.25v-12.6l21.5-21.74c6.37-6.52 10.53-11.03 12.48-13.53a30.31 30.31 0 004.22-7.03 17.84 17.84 0 001.3-6.68c0-3.44-.97-6-2.88-7.68-1.87-1.68-4.4-2.52-7.56-2.52-3.32 0-6.54.76-9.67 2.29a49.85 49.85 0 00-9.78 6.5l-9.84-11.66c4.21-3.6 7.71-6.13 10.48-7.62a37.62 37.62 0 019.09-3.4 45.49 45.49 0 0111.01-1.23c5.35 0 10.08.98 14.18 2.94a22.63 22.63 0 019.55 8.2 21.79 21.79 0 013.4 12.07c0 3.94-.7 7.66-2.1 11.13a41.7 41.7 0 01-6.45 10.6c-2.9 3.64-8.01 8.81-15.36 15.53l-11.01 10.38v.82h37.32V239zm70.5-17.75H205.3V239h-17.7v-17.75h-36.56v-12.6l37.56-55.31h16.7v53.84h10.31v14.07zm-28.02-14.07v-14.53c0-2.42.1-5.94.3-10.55.2-4.6.35-7.28.47-8.02h-.47a65.26 65.26 0 01-5.22 9.37L167 207.18h20.62z" fill="#D22856"/></svg><svg fill="none" viewBox="0 0 238 276" id="clock-tablet" xmlns="http://www.w3.org/2000/svg"><path d="M211.31 81.63l4.28-4.29c6.16-6.17 7.29-15.15 2.5-19.94-4.8-4.79-13.76-3.68-19.91 2.5l-4.3 4.3a118.27 118.27 0 00-59.7-25.57v-7.67h6.13c8.7 0 15.84-6.97 15.84-15.48 0-8.5-7.13-15.48-15.84-15.48H97.72c-8.71 0-15.84 6.97-15.84 15.48 0 8.52 7.13 15.48 15.84 15.48h6.12v7.67a118.94 118.94 0 00-69.05 34 119.31 119.31 0 00-18.32 144.68 119.05 119.05 0 0058.38 50.19 118.84 118.84 0 0076.85 3.91 118.99 118.99 0 0063.18-43.99 119.28 119.28 0 00-3.57-145.8zm-92.3 163.32a87.9 87.9 0 01-48.88-14.85A88.23 88.23 0 0156.8 94.53a87.95 87.95 0 0195.89-19.1 88.01 88.01 0 0139.49 32.45 88.2 88.2 0 01-10.95 111.26 87.92 87.92 0 01-62.22 25.8z" fill="#DEDEDE"/><circle cx="119" cy="157" r="93" stroke="#D22856" stroke-width="16"/><path d="M115.9 191H68v-10.08l17.2-17.39c5.1-5.22 8.42-8.83 9.99-10.83a24.27 24.27 0 003.37-5.62c.69-1.72 1.03-3.5 1.03-5.35 0-2.75-.76-4.8-2.3-6.14-1.5-1.34-3.5-2.01-6.04-2.01-2.66 0-5.23.6-7.73 1.83a39.92 39.92 0 00-7.83 5.2l-7.88-9.33c3.38-2.87 6.17-4.9 8.4-6.1a30.07 30.07 0 017.26-2.71c2.62-.66 5.56-.99 8.81-.99 4.28 0 8.06.79 11.34 2.35a18.1 18.1 0 017.65 6.56 17.43 17.43 0 012.71 9.66c0 3.15-.56 6.12-1.68 8.9a33.4 33.4 0 01-5.16 8.49c-2.31 2.9-6.4 7.04-12.28 12.42l-8.81 8.3v.65h29.86V191zm56.4-14.2h-8.25V191h-14.16v-14.2h-29.25v-10.08l30.05-44.25h13.36v43.08h8.25v11.25zm-22.4-11.25v-11.63c0-1.94.07-4.75.22-8.44.16-3.68.29-5.82.38-6.42h-.38a52.2 52.2 0 01-4.17 7.5l-12.56 18.99h16.5z" fill="#D22856"/></svg><svg fill="none" viewBox="0 0 23 23" id="close-menu" xmlns="http://www.w3.org/2000/svg"><path d="M20.849 0L0 20.849 2.151 23 23 2.151 20.849 0z" fill="#fff"/><path d="M2.151 0L0 2.151 20.849 23 23 20.849 2.151 0z" fill="#fff"/></svg><svg fill="none" viewBox="0 0 23 23" id="close-menu-btn" xmlns="http://www.w3.org/2000/svg"><path d="M20.849 0L0 20.849 2.151 23 23 2.151 20.849 0z" fill="#fff"/><path d="M2.151 0L0 2.151 20.849 23 23 20.849 2.151 0z" fill="#fff"/></svg><svg fill="none" viewBox="0 0 23 23" id="close-menu-btn@2x" xmlns="http://www.w3.org/2000/svg"><path d="M20.849 0L0 20.849 2.151 23 23 2.151 20.849 0z" fill="#fff"/><path d="M2.151 0L0 2.151 20.849 23 23 20.849 2.151 0z" fill="#fff"/></svg><svg fill="#283645" fill-opacity=".3" viewBox="0 0 32 32" id="contrast-mobile" xmlns="http://www.w3.org/2000/svg"><path d="M16 4a12 12 0 110 24 12 12 0 010-24zm0-4a16 16 0 100 32 16 16 0 000-32zM16 24.29a8.52 8.52 0 000-17"/></svg><svg fill="#D22856" viewBox="0 0 32 32" id="contrast-mobile-active" xmlns="http://www.w3.org/2000/svg"><path d="M16 4a12 12 0 110 24 12 12 0 010-24zm0-4a16 16 0 100 32 16 16 0 000-32zM16 24.29a8.52 8.52 0 000-17"/></svg><svg fill="#283645" fill-opacity=".5" viewBox="0 0 32 32" id="contrast-mobile-hover" xmlns="http://www.w3.org/2000/svg"><path d="M16 4a12 12 0 110 24 12 12 0 010-24zm0-4a16 16 0 100 32 16 16 0 000-32zM16 24.29a8.52 8.52 0 000-17"/></svg><svg fill="#283645" fill-opacity=".3" viewBox="0 0 16 16" id="contrast-tablet" xmlns="http://www.w3.org/2000/svg"><path d="M8 2a6 6 0 110 12A6 6 0 018 2zm0-2a8 8 0 100 16A8 8 0 008 0zM8 12.145a4.26 4.26 0 000-8.5"/></svg><svg fill="#D22856" viewBox="0 0 16 16" id="contrast-tablet-active" xmlns="http://www.w3.org/2000/svg"><path d="M8 2a6 6 0 110 12A6 6 0 018 2zm0-2a8 8 0 100 16A8 8 0 008 0zM8 12.145a4.26 4.26 0 000-8.5"/></svg><svg fill="#283645" fill-opacity=".5" viewBox="0 0 16 16" id="contrast-tablet-hover" xmlns="http://www.w3.org/2000/svg"><path d="M8 2a6 6 0 110 12A6 6 0 018 2zm0-2a8 8 0 100 16A8 8 0 008 0zM8 12.145a4.26 4.26 0 000-8.5"/></svg><svg fill="#283645" fill-opacity=".3" viewBox="0 0 44 44" id="crop-mobile" xmlns="http://www.w3.org/2000/svg"><path d="M32 28h4V12a4 4 0 00-4-4H16v4h16v16zm-20 4V0H8v8H0v4h8v20a4 4 0 004 4h20v8h4v-8h8v-4H12z"/></svg><svg fill="#D22856" viewBox="0 0 44 44" id="crop-mobile-active" xmlns="http://www.w3.org/2000/svg"><path d="M32 28h4V12a4 4 0 00-4-4H16v4h16v16zm-20 4V0H8v8H0v4h8v20a4 4 0 004 4h20v8h4v-8h8v-4H12z"/></svg><svg fill="#283645" fill-opacity=".5" viewBox="0 0 44 44" id="crop-mobile-hover" xmlns="http://www.w3.org/2000/svg"><path d="M32 28h4V12a4 4 0 00-4-4H16v4h16v16zm-20 4V0H8v8H0v4h8v20a4 4 0 004 4h20v8h4v-8h8v-4H12z"/></svg><svg fill="#283645" fill-opacity=".3" viewBox="0 0 22 22" id="crop-tablet" xmlns="http://www.w3.org/2000/svg"><path d="M16 14h2V6a2 2 0 00-2-2H8v2h8v8zM6 16V0H4v4H0v2h4v10a2 2 0 002 2h10v4h2v-4h4v-2H6z"/></svg><svg fill="#D22856" viewBox="0 0 22 22" id="crop-tablet-active" xmlns="http://www.w3.org/2000/svg"><path d="M16 14h2V6a2 2 0 00-2-2H8v2h8v8zM6 16V0H4v4H0v2h4v10a2 2 0 002 2h10v4h2v-4h4v-2H6z"/></svg><svg fill="#283645" fill-opacity=".5" viewBox="0 0 22 22" id="crop-tablet-hover" xmlns="http://www.w3.org/2000/svg"><path d="M16 14h2V6a2 2 0 00-2-2H8v2h8v8zM6 16V0H4v4H0v2h4v10a2 2 0 002 2h10v4h2v-4h4v-2H6z"/></svg><svg fill="none" viewBox="0 0 59 59" id="email-icon" xmlns="http://www.w3.org/2000/svg"><path fill="#E5E5E5" d="M0 0h59v59H0z"/><path d="M35.91 24.68c1.2-.928.91-1.68-.65-1.68H24.73c-1.56 0-1.85.761-.66 1.68l3.75 2.898c.621.45 1.387.696 2.175.696.788 0 1.554-.245 2.175-.696l3.74-2.897z" fill="#D22856"/><path d="M32.91 29.5l-2.21 1.746a1.13 1.13 0 01-.26.111l-.1.047c-.109.042-.223.07-.34.083l-.33-.056-.12-.074a1.182 1.182 0 01-.24-.13L27.08 29.5l-3.9-2.971C22 25.6 21 26.027 21 27.476v5.859a2.48 2.48 0 00.21 1.014c.14.322.348.615.61.863.263.247.576.444.92.58a3.04 3.04 0 001.09.208h12.32c.376 0 .748-.07 1.095-.203.347-.134.663-.331.927-.579.265-.247.475-.541.617-.865.142-.323.214-.669.211-1.018v-5.86c0-1.448-1-1.856-2.18-.928L32.91 29.5z" fill="#D22856"/></svg><svg fill="none" viewBox="0 0 59 59" id="email-icon@2x" xmlns="http://www.w3.org/2000/svg"><path fill="#E5E5E5" d="M0 0h59v59H0z"/><path d="M35.91 24.68c1.2-.928.91-1.68-.65-1.68H24.73c-1.56 0-1.85.761-.66 1.68l3.75 2.898c.621.45 1.387.696 2.175.696.788 0 1.554-.245 2.175-.696l3.74-2.897z" fill="#D22856"/><path d="M32.91 29.5l-2.21 1.746a1.13 1.13 0 01-.26.111l-.1.047c-.109.042-.223.07-.34.083l-.33-.056-.12-.074a1.182 1.182 0 01-.24-.13L27.08 29.5l-3.9-2.971C22 25.6 21 26.027 21 27.476v5.859a2.48 2.48 0 00.21 1.014c.14.322.348.615.61.863.263.247.576.444.92.58a3.04 3.04 0 001.09.208h12.32c.376 0 .748-.07 1.095-.203.347-.134.663-.331.927-.579.265-.247.475-.541.617-.865.142-.323.214-.669.211-1.018v-5.86c0-1.448-1-1.856-2.18-.928L32.91 29.5z" fill="#D22856"/></svg><svg fill="none" viewBox="0 0 9 18" id="facebook-pic" xmlns="http://www.w3.org/2000/svg"><path d="M6.5 3.2H9V0H6.02C2.76.17 1.6 2.27 2.08 5.82H0v3.33h2.08V18h3.94V9.15h2.96V5.82H6c-.02-1-.04-2.3.5-2.63z" fill="#D22856"/></svg><svg fill="#283645" fill-opacity=".3" viewBox="0 0 48 43" id="fill-mobile" xmlns="http://www.w3.org/2000/svg"><path d="M33.12 17.88L15.24 0l-2.83 2.83 4.76 4.76L6.88 17.88a3 3 0 000 4.24l11 11a3 3 0 004.24 0l11-11a3 3 0 000-4.24zM10.41 20L20 10.42 29.59 20H10.41zM38 23s-4 4.33-4 7a4 4 0 108 0c0-2.67-4-7-4-7zM48 40H0v3h48v-3z"/></svg><svg fill="#D22856" viewBox="0 0 48 43" id="fill-mobile-active" xmlns="http://www.w3.org/2000/svg"><path d="M33.12 17.88L15.24 0l-2.83 2.83 4.76 4.76L6.88 17.88a3 3 0 000 4.24l11 11a3 3 0 004.24 0l11-11a3 3 0 000-4.24zM10.41 20L20 10.42 29.59 20H10.41zM38 23s-4 4.33-4 7a4 4 0 108 0c0-2.67-4-7-4-7zM48 40H0v3h48v-3z"/></svg><svg fill="#283645" fill-opacity=".5" viewBox="0 0 48 43" id="fill-mobile-hover" xmlns="http://www.w3.org/2000/svg"><path d="M33.12 17.88L15.24 0l-2.83 2.83 4.76 4.76L6.88 17.88a3 3 0 000 4.24l11 11a3 3 0 004.24 0l11-11a3 3 0 000-4.24zM10.41 20L20 10.42 29.59 20H10.41zM38 23s-4 4.33-4 7a4 4 0 108 0c0-2.67-4-7-4-7zM48 40H0v3h48v-3z"/></svg><svg fill="#283645" fill-opacity=".3" viewBox="0 0 24 22" id="fill-tablet" xmlns="http://www.w3.org/2000/svg"><path d="M16.56 9.148L7.62 0 6.205 1.448l2.38 2.435L3.44 9.148c-.28.288-.439.678-.439 1.085 0 .406.158.796.439 1.084l5.5 5.628c.281.288.662.449 1.06.449s.779-.161 1.06-.449l5.5-5.628c.28-.288.439-.678.439-1.084 0-.407-.158-.797-.439-1.085zM5.205 10.233L10 5.33l4.795 4.902h-9.59zM19 11.767s-2 2.216-2 3.582c0 .543.21 1.063.586 1.447.375.384.884.6 1.414.6.53 0 1.04-.216 1.414-.6A2.07 2.07 0 0021 15.349c0-1.366-2-3.582-2-3.582zM24 20.465H0V22h24v-1.535z"/></svg><svg fill="#D22856" viewBox="0 0 24 22" id="fill-tablet-active" xmlns="http://www.w3.org/2000/svg"><path d="M16.56 9.148L7.62 0 6.205 1.448l2.38 2.435L3.44 9.148c-.28.288-.439.678-.439 1.085 0 .406.158.796.439 1.084l5.5 5.628c.281.288.662.449 1.06.449s.779-.161 1.06-.449l5.5-5.628c.28-.288.439-.678.439-1.084 0-.407-.158-.797-.439-1.085zM5.205 10.233L10 5.33l4.795 4.902h-9.59zM19 11.767s-2 2.216-2 3.582c0 .543.21 1.063.586 1.447.375.384.884.6 1.414.6.53 0 1.04-.216 1.414-.6A2.07 2.07 0 0021 15.349c0-1.366-2-3.582-2-3.582zM24 20.465H0V22h24v-1.535z"/></svg><svg fill="#283645" fill-opacity=".5" viewBox="0 0 24 22" id="fill-tablet-hover" xmlns="http://www.w3.org/2000/svg"><path d="M16.56 9.148L7.62 0 6.205 1.448l2.38 2.435L3.44 9.148c-.28.288-.439.678-.439 1.085 0 .406.158.796.439 1.084l5.5 5.628c.281.288.662.449 1.06.449s.779-.161 1.06-.449l5.5-5.628c.28-.288.439-.678.439-1.084 0-.407-.158-.797-.439-1.085zM5.205 10.233L10 5.33l4.795 4.902h-9.59zM19 11.767s-2 2.216-2 3.582c0 .543.21 1.063.586 1.447.375.384.884.6 1.414.6.53 0 1.04-.216 1.414-.6A2.07 2.07 0 0021 15.349c0-1.366-2-3.582-2-3.582zM24 20.465H0V22h24v-1.535z"/></svg><svg fill="none" viewBox="0 0 59 40" id="glasses" xmlns="http://www.w3.org/2000/svg"><path fill-rule="evenodd" clip-rule="evenodd" d="M53.9 6.59l5.03 21.14a1.42 1.42 0 01-.75 1.72c-.2.09-.43.13-.65.11h-4.01a11.63 11.63 0 01-11.49 10.32c-5.92 0-10.8-4.5-11.49-10.32h-1.96A11.75 11.75 0 0116.97 40c-6 0-10.94-4.57-11.61-10.47H1.45A1.36 1.36 0 01.3 29a1.42 1.42 0 01-.24-1.27L5.1 6.6C5.46 4.26 7.64 0 13.5 0c.38 0 .76.16 1.03.44a1.5 1.5 0 010 2.1c-.27.27-.65.43-1.03.43-4.71 0-5.44 3.7-5.5 4.1L3.34 26.6h2.03a11.75 11.75 0 0111.6-10.3c5.94 0 10.84 4.48 11.6 10.3h1.99a11.63 11.63 0 0111.47-10.19c5.89 0 10.75 4.46 11.48 10.23v-.06h2.14L51 7.08c-.07-.41-.77-4.1-5.5-4.1-.39 0-.76-.17-1.03-.44a1.5 1.5 0 010-2.1c.27-.28.64-.44 1.03-.44 5.85 0 8.03 4.26 8.38 6.59zM25.66 29.56a9.12 9.12 0 00-.02-2.97 8.85 8.85 0 00-8.68-7.38 8.85 8.85 0 00-8.82 8.94 8.85 8.85 0 008.81 8.94c4.4 0 8.04-3.26 8.71-7.53zm24.94 0a8.75 8.75 0 00-8.58-10.23 8.75 8.75 0 00-8.58 10.23 8.73 8.73 0 008.58 7.4c4.33 0 7.91-3.2 8.58-7.4z" fill="#D22856"/></svg><svg fill="none" viewBox="0 0 27 34" id="html-academy" xmlns="http://www.w3.org/2000/svg"><path d="M13.643.016L13.5 0 0 1.407v24.606L13.5 34 27 26.013V1.407L13.643.016zm11.591 25L13.5 31.956 1.766 25.015V14.93l11.685 6.916.02 1.253-8.017-4.743-.011 1.225 8.046 4.809.02 1.286-8.045-4.758-.01 1.226L13.5 26.95l8.124-4.833V16.91l3.62-2.15-.01 10.256zm0-11.564l-3.22 1.88-1.482.875-7.065-4.187-.011 1.225 6.04 3.573-.053.031-.13.076-.86.492-4.986-2.948-.011 1.225 3.936 2.328-.933.61-.021.012-2.971-1.742-.011 1.225 1.947 1.135-1.988 1.186-11.618-6.872 11.638-6.958 11.8 6.834zm0-1.225L13.44 5.31 1.766 12.22V2.99L13.5 1.764 25.234 2.99v9.237z" fill="#D22856"/></svg><svg fill="none" viewBox="0 0 27 34" id="html-academy-active" xmlns="http://www.w3.org/2000/svg"><path opacity=".3" d="M13.643.016L13.5 0 0 1.407v24.606L13.5 34 27 26.013V1.407L13.643.016zm11.591 25L13.5 31.956 1.766 25.015V14.93l11.685 6.916.02 1.253-8.017-4.743-.011 1.225 8.046 4.809.02 1.286-8.045-4.758-.01 1.226L13.5 26.95l8.124-4.833V16.91l3.62-2.15-.01 10.256zm0-11.564l-3.22 1.88-1.482.875-7.065-4.187-.011 1.225 6.04 3.573-.053.031-.13.076-.86.492-4.986-2.948-.011 1.225 3.936 2.328-.933.61-.021.012-2.971-1.742-.011 1.225 1.947 1.135-1.988 1.186-11.618-6.872 11.638-6.958 11.8 6.834zm0-1.225L13.44 5.31 1.766 12.22V2.99L13.5 1.764 25.234 2.99v9.237z" fill="#283645"/></svg><svg fill="none" viewBox="0 0 27 34" id="html-academy-hover" xmlns="http://www.w3.org/2000/svg"><path d="M13.643.016L13.5 0 0 1.407v24.606L13.5 34 27 26.013V1.407L13.643.016zm11.591 25L13.5 31.956 1.766 25.015V14.93l11.685 6.916.02 1.253-8.017-4.743-.011 1.225 8.046 4.809.02 1.286-8.045-4.758-.01 1.226L13.5 26.95l8.124-4.833V16.91l3.62-2.15-.01 10.256zm0-11.564l-3.22 1.88-1.482.875-7.065-4.187-.011 1.225 6.04 3.573-.053.031-.13.076-.86.492-4.986-2.948-.011 1.225 3.936 2.328-.933.61-.021.012-2.971-1.742-.011 1.225 1.947 1.135-1.988 1.186-11.618-6.872 11.638-6.958 11.8 6.834zm0-1.225L13.44 5.31 1.766 12.22V2.99L13.5 1.764 25.234 2.99v9.237z" fill="#283645"/></svg><svg fill="none" viewBox="0 0 22 41" id="left-arrow" xmlns="http://www.w3.org/2000/svg"><path opacity=".3" d="M2.041 20.503L21.748 1.415A.821.821 0 0022 .83a.801.801 0 00-.252-.585A.86.86 0 0021.14 0a.882.882 0 00-.608.245L.252 19.909a.832.832 0 00-.252.59.81.81 0 00.253.59l20.279 19.673a.894.894 0 00.613.238.877.877 0 00.473-.143.838.838 0 00.313-.372.809.809 0 00-.183-.902L2.041 20.503z" fill="#283645"/></svg><svg fill="none" viewBox="0 0 22 41" id="left-arrow-10" xmlns="http://www.w3.org/2000/svg"><path opacity=".1" d="M2.041 20.503L21.748 1.415A.821.821 0 0022 .83a.801.801 0 00-.252-.585A.86.86 0 0021.14 0a.882.882 0 00-.608.245L.252 19.909a.832.832 0 00-.252.59.81.81 0 00.253.59l20.279 19.673a.894.894 0 00.613.238.877.877 0 00.473-.143.838.838 0 00.313-.372.809.809 0 00-.183-.902L2.041 20.503z" fill="#283645"/></svg><svg fill="none" viewBox="0 0 22 41" id="left-arrow-60" xmlns="http://www.w3.org/2000/svg"><path opacity=".6" d="M2.041 20.503L21.748 1.415A.821.821 0 0022 .83a.801.801 0 00-.252-.585A.86.86 0 0021.14 0a.882.882 0 00-.608.245L.252 19.909a.832.832 0 00-.252.59.81.81 0 00.253.59l20.279 19.673a.894.894 0 00.613.238.877.877 0 00.473-.143.838.838 0 00.313-.372.809.809 0 00-.183-.902L2.041 20.503z" fill="#283645"/></svg><svg fill="none" viewBox="0 0 22 41" id="left-arrow@2x" xmlns="http://www.w3.org/2000/svg"><path opacity=".3" d="M2.041 20.503L21.748 1.415A.821.821 0 0022 .83a.801.801 0 00-.252-.585A.86.86 0 0021.14 0a.882.882 0 00-.608.245L.252 19.909a.832.832 0 00-.252.59.81.81 0 00.253.59l20.279 19.673a.894.894 0 00.613.238.877.877 0 00.473-.143.838.838 0 00.313-.372.809.809 0 00-.183-.902L2.041 20.503z" fill="#283645"/></svg><svg viewBox="0 0 147 40" id="logo-footer" xmlns="http://www.w3.org/2000/svg"><svg fill="currentColor" viewBox="0 0 147 40"><path d="M71 18.55a1.29 1.29 0 011.26-1.29h7.13c5.06 0 8.39 2.7 8.39 7.13v.06c0 4.85-4.04 7.36-8.8 7.36h-5.44v6.8A1.28 1.28 0 0172.27 40 1.27 1.27 0 0171 38.61V18.55zm8.07 10.97c3.7 0 6.14-2 6.14-4.99v-.06c0-3.2-2.4-4.87-5.96-4.87H73.6v9.88l5.48.04zM92.6 18.39A1.28 1.28 0 0193.85 17a1.27 1.27 0 011.27 1.39V38.6a1.28 1.28 0 01-1.26 1.4 1.27 1.27 0 01-1.27-1.39V18.4zm9.07.03a1.28 1.28 0 011.26-1.25h.34a1.53 1.53 0 011.29.74l13.6 17.4V18.36a1.24 1.24 0 011.23-1.24 1.23 1.23 0 011.23 1.24v20.3a1.16 1.16 0 01-.32.83 1.13 1.13 0 01-.83.34h-.13a1.69 1.69 0 01-1.31-.78l-13.91-17.8v17.4a1.26 1.26 0 01-1.2 1.25 1.23 1.23 0 01-1.2-1.25V18.42h-.05zm25.27-.03A1.28 1.28 0 01128.2 17a1.27 1.27 0 011.26 1.39v12.3l12.76-13.14c.26-.27.62-.43 1-.45a1.27 1.27 0 011.21 1.26 1.3 1.3 0 01-.41.9l-7.95 7.9 8.57 10.52c.23.26.35.6.35.94a1.33 1.33 0 01-.4.92 1.29 1.29 0 01-.94.36 1.23 1.23 0 01-1-.58l-8.36-10.46-4.83 4.85v4.88a1.28 1.28 0 01-.78 1.17 1.26 1.26 0 01-1.74-1.17V18.4h-.01z"/><path d="M53.9 6.59l5.03 21.14a1.42 1.42 0 01-.75 1.72c-.2.09-.43.13-.65.11h-4.01a11.63 11.63 0 01-11.49 10.32c-5.92 0-10.8-4.5-11.49-10.32h-1.96A11.75 11.75 0 0116.97 40c-6 0-10.94-4.57-11.61-10.47H1.45A1.36 1.36 0 01.3 29a1.42 1.42 0 01-.24-1.27L5.1 6.6C5.46 4.26 7.64 0 13.5 0c.38 0 .76.16 1.03.44a1.5 1.5 0 010 2.1c-.27.27-.65.43-1.03.43-4.71 0-5.44 3.7-5.5 4.1L3.34 26.6h2.03a11.75 11.75 0 0111.6-10.3c5.94 0 10.84 4.48 11.6 10.3h1.99a11.63 11.63 0 0111.47-10.19c5.89 0 10.75 4.46 11.48 10.23v-.06h2.14L51 7.08c-.07-.41-.77-4.1-5.5-4.1-.39 0-.76-.17-1.03-.44a1.5 1.5 0 010-2.1c.27-.28.64-.44 1.03-.44 5.85 0 8.03 4.26 8.38 6.59zM25.66 29.56a9.12 9.12 0 00-.02-2.97 8.85 8.85 0 00-8.68-7.38 8.85 8.85 0 00-8.82 8.94 8.85 8.85 0 008.81 8.94c4.4 0 8.04-3.26 8.71-7.53zm24.94 0a8.75 8.75 0 00-8.58-10.23 8.75 8.75 0 00-8.58 10.23 8.73 8.73 0 008.58 7.4c4.33 0 7.91-3.2 8.58-7.4z" fill="#d22856"/></svg><svg viewBox="0 0 147 40" fill="currentColor"><path d="M72.193 18.425c0-.333.133-.652.369-.89.237-.238.558-.376.897-.384h7.211c5.113 0 8.477 2.676 8.477 7.06v.06c0 4.798-4.078 7.287-8.899 7.287h-5.494v6.734a1.243 1.243 0 01-.332.965 1.286 1.286 0 01-.948.41 1.304 1.304 0 01-.949-.41 1.26 1.26 0 01-.332-.965V18.425zm8.156 10.861c3.746 0 6.207-1.974 6.207-4.937v-.059c0-3.18-2.42-4.828-6.026-4.828h-5.725v9.785l5.544.04zM94.019 18.267a1.244 1.244 0 01.332-.965 1.287 1.287 0 01.948-.41 1.304 1.304 0 01.949.41 1.26 1.26 0 01.332.965v20.024a1.245 1.245 0 01-.332.966 1.285 1.285 0 01-.949.41 1.304 1.304 0 01-.948-.41 1.26 1.26 0 01-.332-.965V18.267zM103.199 18.296a1.25 1.25 0 01.38-.867c.236-.23.553-.362.885-.367h.352c.261.005.516.075.743.203.226.127.416.309.552.528l13.751 17.23V18.237c0-.325.131-.636.364-.866a1.259 1.259 0 011.762 0c.233.23.364.541.364.866v20.094a1.117 1.117 0 01-.711 1.082 1.16 1.16 0 01-.454.083h-.13a1.739 1.739 0 01-.756-.231 1.708 1.708 0 01-.57-.54L105.67 21.092v17.24a1.238 1.238 0 01-.353.853c-.224.23-.529.366-.853.38a1.257 1.257 0 01-.871-.368 1.21 1.21 0 01-.354-.865V18.296h-.04zM128.74 18.267a1.26 1.26 0 01.763-1.268 1.304 1.304 0 011.466.303 1.25 1.25 0 01.333.965v12.175l12.896-13.004c.264-.27.624-.428 1.004-.445.329.013.64.149.87.38.23.232.361.541.366.864a1.277 1.277 0 01-.422.889l-8.035 7.82 8.668 10.427c.226.258.351.588.351.928a1.283 1.283 0 01-.41.91 1.322 1.322 0 01-.946.354 1.228 1.228 0 01-1.004-.572l-8.447-10.358-4.891 4.799v4.838a1.257 1.257 0 01-.788 1.159 1.297 1.297 0 01-1.39-.273 1.257 1.257 0 01-.374-.886V18.267h-.01z"/><path d="M98.94 9.746a3.678 3.678 0 01-2.575-1.047 3.554 3.554 0 01-1.07-2.528c0 .948-.384 1.858-1.066 2.528a3.668 3.668 0 01-2.57 1.047c.964.002 1.89.381 2.57 1.053a3.554 3.554 0 011.065 2.531c.003-.95.388-1.86 1.07-2.531a3.688 3.688 0 012.576-1.053zM43.287 19.067h.733a2.47 2.47 0 00-.905-.887 2.524 2.524 0 00-1.234-.328c-.418 0-.826-.129-1.166-.368a1.978 1.978 0 01-.732-.965c-.724.205-1.427.476-2.1.81h.191c.533 0 1.044.208 1.42.578.377.37.59.873.59 1.396.004.096.004.191 0 .287a8.974 8.974 0 013.203-.523z" fill="#D22856"/><path d="M60.733 27.647l-5.192-21.08C55.179 4.245 52.929 0 46.903 0c-.4 0-.783.156-1.066.434a1.469 1.469 0 00-.44 1.047c0 .393.158.77.44 1.047a1.52 1.52 0 001.066.434c4.871 0 5.594 3.683 5.665 4.088l4.78 19.452H55.25a11.721 11.721 0 00-1.724-4.78 11.946 11.946 0 00-3.599-3.633 2.502 2.502 0 00-1.116.908c-.274.404-.42.878-.42 1.363.005.086.005.171 0 .257a9.148 9.148 0 012.922 3.207 8.974 8.974 0 011.095 4.169 9.042 9.042 0 01-.14 1.48 8.849 8.849 0 01-3.05 5.393 9.132 9.132 0 01-5.885 2.141 9.132 9.132 0 01-5.885-2.141 8.849 8.849 0 01-3.049-5.392 9.031 9.031 0 01-.14-1.481c.015-1.37.341-2.72.954-3.95a2.023 2.023 0 01-1.33-.625 1.957 1.957 0 01-.538-1.35.694.694 0 00-.191-.483 11.566 11.566 0 00-1.798 4.936h-1.868a11.782 11.782 0 00-3.933-7.54 12.17 12.17 0 00-8.05-3.03 12.17 12.17 0 00-8.05 3.03 11.782 11.782 0 00-3.932 7.54H3.443L8.233 7.05c.061-.405.814-4.088 5.666-4.088.4 0 .783-.156 1.065-.434.282-.277.441-.654.441-1.047 0-.393-.159-.77-.441-1.047A1.52 1.52 0 0013.899 0C7.872 0 5.623 4.246 5.26 6.566L.058 27.647a1.38 1.38 0 00.247 1.263c.14.176.322.316.529.41.207.092.433.135.66.124h4.018c.082.611.21 1.215.382 1.807a.731.731 0 00.1-.355c0-.524.212-1.026.589-1.397.376-.37.887-.578 1.42-.578.162.004.324.024.482.06a8.536 8.536 0 01-.07-.988c.002-.497.046-.992.13-1.481a8.848 8.848 0 013.042-5.414 9.131 9.131 0 015.897-2.152c2.165 0 4.258.764 5.898 2.152a8.848 8.848 0 013.041 5.414c.085.49.128.984.131 1.48a8.775 8.775 0 01-1.334 4.7 8.984 8.984 0 01-3.656 3.298 9.174 9.174 0 01-9.503-.858c-.363.31-.826.48-1.306.483a.76.76 0 00-.526.22.734.734 0 00-.217.521 1.946 1.946 0 01-.181.8 12.088 12.088 0 007.643 2.705 12.174 12.174 0 008.012-2.951 11.789 11.789 0 004-7.436h1.829a11.784 11.784 0 003.944 7.51A12.171 12.171 0 0043.292 40c2.964 0 5.823-1.073 8.033-3.015a11.784 11.784 0 003.944-7.511h4.018c.232.016.465-.024.678-.117.212-.093.398-.236.541-.417a1.38 1.38 0 00.227-1.293z" fill="#D22856"/><path d="M50.92 15.917a4.577 4.577 0 01-1.729-.335 4.516 4.516 0 01-1.466-.96 4.43 4.43 0 01-.98-1.44 4.37 4.37 0 01-.344-1.699 4.406 4.406 0 01-1.328 3.136 4.56 4.56 0 01-3.192 1.298 4.57 4.57 0 013.193 1.304 4.416 4.416 0 011.327 3.14c0-1.18.476-2.31 1.323-3.143a4.56 4.56 0 013.196-1.301zM38.074 19.383a2.786 2.786 0 01-1.953-.796 2.692 2.692 0 01-.809-1.92c0 .719-.29 1.408-.805 1.917a2.786 2.786 0 01-1.947.799c.73 0 1.43.285 1.946.792.516.508.806 1.196.806 1.913a2.692 2.692 0 01.813-1.913 2.786 2.786 0 011.95-.792zM10.785 33.64a2.786 2.786 0 01-1.94-.802 2.692 2.692 0 01-.802-1.913c0 .719-.29 1.408-.805 1.917a2.786 2.786 0 01-1.947.799c.73.002 1.43.29 1.947.798.515.51.805 1.199.805 1.917 0-.717.288-1.404.802-1.913a2.786 2.786 0 011.94-.802z" fill="#283645"/></svg></svg><svg fill="none" viewBox="0 0 147 40" id="logotype-blue-desktop" xmlns="http://www.w3.org/2000/svg"><g fill="#283645"><path d="M72.193 18.425c0-.333.133-.652.369-.89.237-.238.558-.376.897-.384h7.211c5.113 0 8.477 2.676 8.477 7.06v.06c0 4.798-4.078 7.287-8.899 7.287h-5.494v6.734a1.243 1.243 0 01-.332.965 1.286 1.286 0 01-.948.41 1.304 1.304 0 01-.949-.41 1.26 1.26 0 01-.332-.965V18.425zm8.156 10.861c3.746 0 6.207-1.974 6.207-4.937v-.059c0-3.18-2.42-4.828-6.026-4.828h-5.725v9.785l5.544.04zM94.019 18.267a1.244 1.244 0 01.332-.965 1.287 1.287 0 01.948-.41 1.304 1.304 0 01.949.41 1.26 1.26 0 01.332.965v20.024a1.245 1.245 0 01-.332.966 1.285 1.285 0 01-.949.41 1.304 1.304 0 01-.948-.41 1.26 1.26 0 01-.332-.965V18.267zM103.199 18.296a1.25 1.25 0 01.38-.867c.236-.23.553-.362.885-.367h.352c.261.005.516.075.743.203.226.127.416.309.552.528l13.751 17.23V18.237c0-.325.131-.636.364-.866a1.259 1.259 0 011.762 0c.233.23.364.541.364.866v20.094a1.117 1.117 0 01-.711 1.082 1.16 1.16 0 01-.454.083h-.13a1.739 1.739 0 01-.756-.231 1.708 1.708 0 01-.57-.54L105.67 21.092v17.24a1.238 1.238 0 01-.353.853c-.224.23-.529.366-.853.38a1.257 1.257 0 01-.871-.368 1.21 1.21 0 01-.354-.865V18.296h-.04zM128.74 18.267a1.26 1.26 0 01.763-1.268 1.304 1.304 0 011.466.303 1.25 1.25 0 01.333.965v12.175l12.896-13.004c.264-.27.624-.428 1.004-.445.329.013.64.149.87.38.23.232.361.541.366.864a1.277 1.277 0 01-.422.889l-8.035 7.82 8.668 10.427c.226.258.351.588.351.928a1.283 1.283 0 01-.41.91 1.322 1.322 0 01-.946.354 1.228 1.228 0 01-1.004-.572l-8.447-10.358-4.891 4.799v4.838a1.257 1.257 0 01-.788 1.159 1.297 1.297 0 01-1.39-.273 1.257 1.257 0 01-.374-.886V18.267h-.01z"/></g><path d="M98.94 9.746a3.678 3.678 0 01-2.575-1.047 3.554 3.554 0 01-1.07-2.528c0 .948-.384 1.858-1.066 2.528a3.668 3.668 0 01-2.57 1.047c.964.002 1.89.381 2.57 1.053a3.554 3.554 0 011.065 2.531c.003-.95.388-1.86 1.07-2.531a3.688 3.688 0 012.576-1.053zM43.287 19.067h.733a2.47 2.47 0 00-.905-.887 2.524 2.524 0 00-1.234-.328c-.418 0-.826-.129-1.166-.368a1.978 1.978 0 01-.732-.965c-.724.205-1.427.476-2.1.81h.191c.533 0 1.044.208 1.42.578.377.37.59.873.59 1.396.004.096.004.191 0 .287a8.974 8.974 0 013.203-.523z" fill="#D22856"/><path d="M60.733 27.647l-5.192-21.08C55.179 4.245 52.929 0 46.903 0c-.4 0-.783.156-1.066.434a1.469 1.469 0 00-.44 1.047c0 .393.158.77.44 1.047a1.52 1.52 0 001.066.434c4.871 0 5.594 3.683 5.665 4.088l4.78 19.452H55.25a11.721 11.721 0 00-1.724-4.78 11.946 11.946 0 00-3.599-3.633 2.502 2.502 0 00-1.116.908c-.274.404-.42.878-.42 1.363.005.086.005.171 0 .257a9.148 9.148 0 012.922 3.207 8.974 8.974 0 011.095 4.169 9.042 9.042 0 01-.14 1.48 8.849 8.849 0 01-3.05 5.393 9.132 9.132 0 01-5.885 2.141 9.132 9.132 0 01-5.885-2.141 8.849 8.849 0 01-3.049-5.392 9.031 9.031 0 01-.14-1.481c.015-1.37.341-2.72.954-3.95a2.023 2.023 0 01-1.33-.625 1.957 1.957 0 01-.538-1.35.694.694 0 00-.191-.483 11.566 11.566 0 00-1.798 4.936h-1.868a11.782 11.782 0 00-3.933-7.54 12.17 12.17 0 00-8.05-3.03 12.17 12.17 0 00-8.05 3.03 11.782 11.782 0 00-3.932 7.54H3.443L8.233 7.05c.061-.405.814-4.088 5.666-4.088.4 0 .783-.156 1.065-.434.282-.277.441-.654.441-1.047 0-.393-.159-.77-.441-1.047A1.52 1.52 0 0013.899 0C7.872 0 5.623 4.246 5.26 6.566L.058 27.647a1.38 1.38 0 00.247 1.263c.14.176.322.316.529.41.207.092.433.135.66.124h4.018c.082.611.21 1.215.382 1.807a.731.731 0 00.1-.355c0-.524.212-1.026.589-1.397.376-.37.887-.578 1.42-.578.162.004.324.024.482.06a8.536 8.536 0 01-.07-.988c.002-.497.046-.992.13-1.481a8.848 8.848 0 013.042-5.414 9.131 9.131 0 015.897-2.152c2.165 0 4.258.764 5.898 2.152a8.848 8.848 0 013.041 5.414c.085.49.128.984.131 1.48a8.775 8.775 0 01-1.334 4.7 8.984 8.984 0 01-3.656 3.298 9.174 9.174 0 01-9.503-.858c-.363.31-.826.48-1.306.483a.76.76 0 00-.526.22.734.734 0 00-.217.521 1.946 1.946 0 01-.181.8 12.088 12.088 0 007.643 2.705 12.174 12.174 0 008.012-2.951 11.789 11.789 0 004-7.436h1.829a11.784 11.784 0 003.944 7.51A12.171 12.171 0 0043.292 40c2.964 0 5.823-1.073 8.033-3.015a11.784 11.784 0 003.944-7.511h4.018c.232.016.465-.024.678-.117.212-.093.398-.236.541-.417a1.38 1.38 0 00.227-1.293z" fill="#D22856"/><path d="M50.92 15.917a4.577 4.577 0 01-1.729-.335 4.516 4.516 0 01-1.466-.96 4.43 4.43 0 01-.98-1.44 4.37 4.37 0 01-.344-1.699 4.406 4.406 0 01-1.328 3.136 4.56 4.56 0 01-3.192 1.298 4.57 4.57 0 013.193 1.304 4.416 4.416 0 011.327 3.14c0-1.18.476-2.31 1.323-3.143a4.56 4.56 0 013.196-1.301zM38.074 19.383a2.786 2.786 0 01-1.953-.796 2.692 2.692 0 01-.809-1.92c0 .719-.29 1.408-.805 1.917a2.786 2.786 0 01-1.947.799c.73 0 1.43.285 1.946.792.516.508.806 1.196.806 1.913a2.692 2.692 0 01.813-1.913 2.786 2.786 0 011.95-.792zM10.785 33.64a2.786 2.786 0 01-1.94-.802 2.692 2.692 0 01-.802-1.913c0 .719-.29 1.408-.805 1.917a2.786 2.786 0 01-1.947.799c.73.002 1.43.29 1.947.798.515.51.805 1.199.805 1.917 0-.717.288-1.404.802-1.913a2.786 2.786 0 011.94-.802z" fill="#283645"/></svg><svg fill="none" viewBox="0 0 147 40" id="logotype-blue-desktop@2x" xmlns="http://www.w3.org/2000/svg"><path d="M72.193 18.425c0-.333.133-.652.369-.89.237-.238.558-.376.897-.384h7.211c5.113 0 8.477 2.676 8.477 7.06v.06c0 4.798-4.078 7.287-8.899 7.287h-5.494v6.734a1.243 1.243 0 01-.332.965 1.286 1.286 0 01-.948.41 1.304 1.304 0 01-.949-.41 1.26 1.26 0 01-.332-.965V18.425zm8.156 10.861c3.746 0 6.207-1.974 6.207-4.937v-.059c0-3.18-2.42-4.828-6.026-4.828h-5.725v9.785l5.544.04zM94.019 18.267a1.244 1.244 0 01.332-.965 1.287 1.287 0 01.948-.41 1.304 1.304 0 01.949.41 1.26 1.26 0 01.332.965v20.024a1.245 1.245 0 01-.332.966 1.285 1.285 0 01-.949.41 1.304 1.304 0 01-.948-.41 1.26 1.26 0 01-.332-.965V18.267zM103.199 18.296a1.25 1.25 0 01.38-.867c.236-.23.553-.362.885-.367h.352c.261.005.516.075.743.203.226.127.416.309.552.528l13.751 17.23V18.237c0-.325.131-.636.364-.866a1.259 1.259 0 011.762 0c.233.23.364.541.364.866v20.094a1.117 1.117 0 01-.711 1.082 1.16 1.16 0 01-.454.083h-.13a1.739 1.739 0 01-.756-.231 1.708 1.708 0 01-.57-.54L105.67 21.092v17.24a1.238 1.238 0 01-.353.853c-.224.23-.529.366-.853.38a1.257 1.257 0 01-.871-.368 1.21 1.21 0 01-.354-.865V18.296h-.04zM128.74 18.267a1.26 1.26 0 01.763-1.268 1.304 1.304 0 011.466.303 1.25 1.25 0 01.333.965v12.175l12.896-13.004c.264-.27.624-.428 1.004-.445.329.013.64.149.87.38.23.232.361.541.366.864a1.277 1.277 0 01-.422.889l-8.035 7.82 8.668 10.427c.226.258.351.588.351.928a1.283 1.283 0 01-.41.91 1.322 1.322 0 01-.946.354 1.228 1.228 0 01-1.004-.572l-8.447-10.358-4.891 4.799v4.838a1.257 1.257 0 01-.788 1.159 1.297 1.297 0 01-1.39-.273 1.257 1.257 0 01-.374-.886V18.267h-.01z" fill="#283645"/><path d="M98.94 9.746a3.678 3.678 0 01-2.575-1.047 3.554 3.554 0 01-1.07-2.528c0 .948-.384 1.858-1.066 2.528a3.668 3.668 0 01-2.57 1.047c.964.002 1.89.381 2.57 1.053a3.554 3.554 0 011.065 2.531c.003-.95.388-1.86 1.07-2.531a3.688 3.688 0 012.576-1.053zM43.287 19.067h.733a2.47 2.47 0 00-.905-.887 2.524 2.524 0 00-1.234-.328c-.418 0-.826-.129-1.166-.368a1.978 1.978 0 01-.732-.965c-.724.205-1.427.476-2.1.81h.191c.533 0 1.044.208 1.42.578.377.37.59.873.59 1.396.004.096.004.191 0 .287a8.974 8.974 0 013.203-.523z" fill="#D22856"/><path d="M60.733 27.647l-5.192-21.08C55.179 4.245 52.929 0 46.903 0c-.4 0-.783.156-1.066.434a1.469 1.469 0 00-.44 1.047c0 .393.158.77.44 1.047a1.52 1.52 0 001.066.434c4.871 0 5.594 3.683 5.665 4.088l4.78 19.452H55.25a11.721 11.721 0 00-1.724-4.78 11.946 11.946 0 00-3.599-3.633 2.502 2.502 0 00-1.116.908c-.274.404-.42.878-.42 1.363.005.086.005.171 0 .257a9.148 9.148 0 012.922 3.207 8.974 8.974 0 011.095 4.169 9.042 9.042 0 01-.14 1.48 8.849 8.849 0 01-3.05 5.393 9.132 9.132 0 01-5.885 2.141 9.132 9.132 0 01-5.885-2.141 8.849 8.849 0 01-3.049-5.392 9.031 9.031 0 01-.14-1.481c.015-1.37.341-2.72.954-3.95a2.023 2.023 0 01-1.33-.625 1.957 1.957 0 01-.538-1.35.694.694 0 00-.191-.483 11.566 11.566 0 00-1.798 4.936h-1.868a11.782 11.782 0 00-3.933-7.54 12.17 12.17 0 00-8.05-3.03 12.17 12.17 0 00-8.05 3.03 11.782 11.782 0 00-3.932 7.54H3.443L8.233 7.05c.061-.405.814-4.088 5.666-4.088.4 0 .783-.156 1.065-.434.282-.277.441-.654.441-1.047 0-.393-.159-.77-.441-1.047A1.52 1.52 0 0013.899 0C7.872 0 5.623 4.246 5.26 6.566L.058 27.647a1.38 1.38 0 00.247 1.263c.14.176.322.316.529.41.207.092.433.135.66.124h4.018c.082.611.21 1.215.382 1.807a.731.731 0 00.1-.355c0-.524.212-1.026.589-1.397.376-.37.887-.578 1.42-.578.162.004.324.024.482.06a8.536 8.536 0 01-.07-.988c.002-.497.046-.992.13-1.481a8.848 8.848 0 013.042-5.414 9.131 9.131 0 015.897-2.152c2.165 0 4.258.764 5.898 2.152a8.848 8.848 0 013.041 5.414c.085.49.128.984.131 1.48a8.775 8.775 0 01-1.334 4.7 8.984 8.984 0 01-3.656 3.298 9.174 9.174 0 01-9.503-.858c-.363.31-.826.48-1.306.483a.76.76 0 00-.526.22.734.734 0 00-.217.521 1.946 1.946 0 01-.181.8 12.088 12.088 0 007.643 2.705 12.174 12.174 0 008.012-2.951 11.789 11.789 0 004-7.436h1.829a11.784 11.784 0 003.944 7.51A12.171 12.171 0 0043.292 40c2.964 0 5.823-1.073 8.033-3.015a11.784 11.784 0 003.944-7.511h4.018c.232.016.465-.024.678-.117.212-.093.398-.236.541-.417a1.38 1.38 0 00.227-1.293z" fill="#D22856"/><path d="M50.92 15.917a4.577 4.577 0 01-1.729-.335 4.516 4.516 0 01-1.466-.96 4.43 4.43 0 01-.98-1.44 4.37 4.37 0 01-.344-1.699 4.406 4.406 0 01-1.328 3.136 4.56 4.56 0 01-3.192 1.298 4.57 4.57 0 013.193 1.304 4.416 4.416 0 011.327 3.14c0-1.18.476-2.31 1.323-3.143a4.56 4.56 0 013.196-1.301zM38.074 19.383a2.786 2.786 0 01-1.953-.796 2.692 2.692 0 01-.809-1.92c0 .719-.29 1.408-.805 1.917a2.786 2.786 0 01-1.947.799c.73 0 1.43.285 1.946.792.516.508.806 1.196.806 1.913a2.692 2.692 0 01.813-1.913 2.786 2.786 0 011.95-.792zM10.785 33.64a2.786 2.786 0 01-1.94-.802 2.692 2.692 0 01-.802-1.913c0 .719-.29 1.408-.805 1.917a2.786 2.786 0 01-1.947.799c.73.002 1.43.29 1.947.798.515.51.805 1.199.805 1.917 0-.717.288-1.404.802-1.913a2.786 2.786 0 011.94-.802z" fill="#283645"/></svg><svg fill="none" viewBox="0 0 145 40" id="logotype-blue-tablet" xmlns="http://www.w3.org/2000/svg"><path d="M71 18.55a1.29 1.29 0 011.26-1.29h7.13c5.06 0 8.39 2.7 8.39 7.13v.06c0 4.85-4.04 7.36-8.8 7.36h-5.44v6.8A1.28 1.28 0 0172.27 40 1.27 1.27 0 0171 38.61V18.55zm8.07 10.97c3.7 0 6.14-2 6.14-4.99v-.06c0-3.2-2.4-4.87-5.96-4.87H73.6v9.88l5.48.04zM92.6 18.39A1.28 1.28 0 0193.85 17a1.27 1.27 0 011.27 1.39V38.6a1.28 1.28 0 01-1.26 1.4 1.27 1.27 0 01-1.27-1.39V18.4zm9.07.03a1.28 1.28 0 011.26-1.25h.34a1.53 1.53 0 011.29.74l13.6 17.4V18.36a1.24 1.24 0 011.23-1.24 1.23 1.23 0 011.23 1.24v20.3a1.16 1.16 0 01-.32.83 1.13 1.13 0 01-.83.34h-.13a1.69 1.69 0 01-1.31-.78l-13.91-17.8v17.4a1.26 1.26 0 01-1.2 1.25 1.23 1.23 0 01-1.2-1.25V18.42h-.05zm25.27-.03A1.28 1.28 0 01128.2 17a1.27 1.27 0 011.26 1.39v12.3l12.76-13.14c.26-.27.62-.43 1-.45a1.27 1.27 0 011.21 1.26 1.3 1.3 0 01-.41.9l-7.95 7.9 8.57 10.52c.23.26.35.6.35.94a1.33 1.33 0 01-.4.92 1.29 1.29 0 01-.94.36 1.23 1.23 0 01-1-.58l-8.36-10.46-4.83 4.85v4.88a1.28 1.28 0 01-.78 1.17 1.26 1.26 0 01-1.74-1.17V18.4h-.01z" fill="#283645"/><path fill-rule="evenodd" clip-rule="evenodd" d="M53.9 6.59l5.03 21.14a1.42 1.42 0 01-.75 1.72c-.2.09-.43.13-.65.11h-4.01a11.63 11.63 0 01-11.49 10.32c-5.92 0-10.8-4.5-11.49-10.32h-1.96A11.75 11.75 0 0116.97 40c-6 0-10.94-4.57-11.61-10.47H1.45A1.36 1.36 0 01.3 29a1.42 1.42 0 01-.24-1.27L5.1 6.6C5.46 4.26 7.64 0 13.5 0c.38 0 .76.16 1.03.44a1.5 1.5 0 010 2.1c-.27.27-.65.43-1.03.43-4.71 0-5.44 3.7-5.5 4.1L3.34 26.6h2.03a11.75 11.75 0 0111.6-10.3c5.94 0 10.84 4.48 11.6 10.3h1.99a11.63 11.63 0 0111.47-10.19c5.89 0 10.75 4.46 11.48 10.23v-.06h2.14L51 7.08c-.07-.41-.77-4.1-5.5-4.1-.39 0-.76-.17-1.03-.44a1.5 1.5 0 010-2.1c.27-.28.64-.44 1.03-.44 5.85 0 8.03 4.26 8.38 6.59zM25.66 29.56a9.12 9.12 0 00-.02-2.97 8.85 8.85 0 00-8.68-7.38 8.85 8.85 0 00-8.82 8.94 8.85 8.85 0 008.81 8.94c4.4 0 8.04-3.26 8.71-7.53zm24.94 0a8.75 8.75 0 00-8.58-10.23 8.75 8.75 0 00-8.58 10.23 8.73 8.73 0 008.58 7.4c4.33 0 7.91-3.2 8.58-7.4z" fill="#D22856"/></svg><svg fill="none" viewBox="0 0 145 40" id="logotype-blue-tablet@2x" xmlns="http://www.w3.org/2000/svg"><path d="M71.005 18.549c0-.337.13-.66.365-.9.234-.24.552-.379.887-.387h7.133c5.057 0 8.385 2.703 8.385 7.13v.06c0 4.846-4.034 7.358-8.802 7.358h-5.435v6.801a1.282 1.282 0 01-.754 1.28 1.27 1.27 0 01-1.717-.758 1.282 1.282 0 01-.062-.522V18.549zm8.067 10.968c3.706 0 6.14-1.994 6.14-4.986v-.06c0-3.21-2.395-4.875-5.961-4.875h-5.663v9.881l5.484.04zM92.594 18.389a1.282 1.282 0 01.754-1.28 1.269 1.269 0 011.717.758c.056.168.078.346.062.522v20.222a1.28 1.28 0 01-.754 1.28 1.27 1.27 0 01-1.717-.758 1.282 1.282 0 01-.063-.522V18.389zM101.674 18.419a1.278 1.278 0 011.252-1.247h.347a1.535 1.535 0 011.282.738l13.601 17.4V18.36c0-.329.13-.643.361-.875a1.229 1.229 0 011.742 0c.231.232.361.546.361.874v20.292c.005.154-.021.308-.076.452a1.13 1.13 0 01-1.077.725h-.129a1.69 1.69 0 01-1.311-.778l-13.909-17.81v17.41a1.257 1.257 0 01-1.192 1.247 1.23 1.23 0 01-1.212-1.246V18.419h-.04zM126.938 18.389a1.284 1.284 0 01.755-1.28 1.267 1.267 0 011.45.306 1.287 1.287 0 01.329.974v12.295l12.756-13.133c.262-.271.617-.432.994-.448.325.012.633.15.86.383.227.234.357.546.362.873a1.28 1.28 0 01-.418.897l-7.948 7.898 8.574 10.53c.224.26.348.593.348.937a1.309 1.309 0 01-1.341 1.276 1.228 1.228 0 01-.994-.578l-8.365-10.46-4.828 4.846v4.886a1.278 1.278 0 01-.37.895 1.26 1.26 0 01-2.154-.895V18.389h-.01z" fill="#283645"/><path fill-rule="evenodd" clip-rule="evenodd" d="M53.892 6.586l5.038 21.145a1.418 1.418 0 01-.22 1.297 1.356 1.356 0 01-1.183.535H53.52c-.69 5.812-5.57 10.315-11.489 10.315-5.917 0-10.798-4.503-11.488-10.314h-1.965C27.887 35.442 22.953 40 16.968 40c-5.994 0-10.934-4.573-11.612-10.466H1.45a1.364 1.364 0 01-1.154-.536 1.418 1.418 0 01-.24-1.267L5.106 6.586C5.455 4.26 7.639 0 13.486 0c.388 0 .76.157 1.034.435.274.279.428.657.428 1.05 0 .395-.154.772-.428 1.051a1.45 1.45 0 01-1.034.435c-4.707 0-5.438 3.694-5.497 4.1L3.341 26.602h2.034c.746-5.817 5.652-10.31 11.593-10.31 5.939 0 10.843 4.488 11.593 10.3l1.998.01c.745-5.75 5.598-10.189 11.473-10.189 5.886 0 10.746 4.456 11.477 10.222v-.053h2.137l-4.639-19.51c-.068-.407-.77-4.1-5.497-4.1a1.45 1.45 0 01-1.033-.436 1.498 1.498 0 01-.428-1.05c0-.394.154-.772.428-1.05A1.45 1.45 0 0145.51 0c5.848 0 8.03 4.259 8.382 6.586zm-28.22 22.977a9.122 9.122 0 00-.022-2.97c-.725-4.195-4.336-7.383-8.681-7.383-4.349 0-7.961 3.192-8.683 7.391a9.114 9.114 0 00-.025 2.94c.66 4.273 4.308 7.541 8.707 7.541 4.392 0 8.034-3.257 8.704-7.518zm24.942 0c.073-.461.112-.934.112-1.417 0-4.868-3.893-8.815-8.694-8.815-4.802 0-8.695 3.947-8.695 8.815 0 .482.039.956.112 1.418.669 4.194 4.257 7.397 8.583 7.397 4.325 0 7.913-3.203 8.582-7.397z" fill="#D22856"/></svg><svg fill="none" viewBox="0 0 50 24" id="menu-burger" xmlns="http://www.w3.org/2000/svg"><path d="M1.137 0c-.15-.003-.3.021-.439.07C.558.12.432.195.326.288A.98.98 0 00.08.614.877.877 0 000 1v2c0 .265.12.52.333.707.213.188.502.293.804.293h47.726c.15.003.3-.021.439-.07.14-.05.266-.123.372-.217a.98.98 0 00.246-.327A.877.877 0 0050 3V1c0-.265-.12-.52-.333-.707A1.22 1.22 0 0048.863 0H1.137zm0 10a1.25 1.25 0 00-.439.07c-.14.05-.266.123-.372.217a.98.98 0 00-.246.327A.877.877 0 000 11v2c0 .265.12.52.333.707.213.188.502.293.804.293h47.726c.15.003.3-.021.439-.07.14-.05.266-.123.372-.217a.98.98 0 00.246-.327A.877.877 0 0050 13v-2c0-.265-.12-.52-.333-.707a1.22 1.22 0 00-.804-.293H1.137zm0 10c-.15-.003-.3.021-.439.07-.14.05-.266.123-.372.217a.98.98 0 00-.246.327A.877.877 0 000 21v2c0 .265.12.52.333.707.213.187.502.293.804.293h47.726c.15.003.3-.021.439-.07.14-.05.266-.124.372-.217a.98.98 0 00.246-.327A.877.877 0 0050 23v-2c0-.265-.12-.52-.333-.707a1.22 1.22 0 00-.804-.293H1.137z" fill="#fff"/></svg><svg fill="none" viewBox="0 0 50 24" id="menu-burger@2x" xmlns="http://www.w3.org/2000/svg"><path d="M1.137 0c-.15-.003-.3.021-.439.07C.558.12.432.195.326.288A.98.98 0 00.08.614.877.877 0 000 1v2c0 .265.12.52.333.707.213.188.502.293.804.293h47.726c.15.003.3-.021.439-.07.14-.05.266-.123.372-.217a.98.98 0 00.246-.327A.877.877 0 0050 3V1c0-.265-.12-.52-.333-.707A1.22 1.22 0 0048.863 0H1.137zm0 10a1.25 1.25 0 00-.439.07c-.14.05-.266.123-.372.217a.98.98 0 00-.246.327A.877.877 0 000 11v2c0 .265.12.52.333.707.213.188.502.293.804.293h47.726c.15.003.3-.021.439-.07.14-.05.266-.123.372-.217a.98.98 0 00.246-.327A.877.877 0 0050 13v-2c0-.265-.12-.52-.333-.707a1.22 1.22 0 00-.804-.293H1.137zm0 10c-.15-.003-.3.021-.439.07-.14.05-.266.123-.372.217a.98.98 0 00-.246.327A.877.877 0 000 21v2c0 .265.12.52.333.707.213.187.502.293.804.293h47.726c.15.003.3-.021.439-.07.14-.05.266-.124.372-.217a.98.98 0 00.246-.327A.877.877 0 0050 23v-2c0-.265-.12-.52-.333-.707a1.22 1.22 0 00-.804-.293H1.137z" fill="#fff"/></svg><svg fill="none" viewBox="0 0 50 24" id="open-menu" xmlns="http://www.w3.org/2000/svg"><path d="M1.137 0c-.15-.003-.3.021-.439.07C.558.12.432.195.326.288A.98.98 0 00.08.614.877.877 0 000 1v2c0 .265.12.52.333.707.213.188.502.293.804.293h47.726c.15.003.3-.021.439-.07.14-.05.266-.123.372-.217a.98.98 0 00.246-.327A.877.877 0 0050 3V1c0-.265-.12-.52-.333-.707A1.22 1.22 0 0048.863 0H1.137zm0 10a1.25 1.25 0 00-.439.07c-.14.05-.266.123-.372.217a.98.98 0 00-.246.327A.877.877 0 000 11v2c0 .265.12.52.333.707.213.188.502.293.804.293h47.726c.15.003.3-.021.439-.07.14-.05.266-.123.372-.217a.98.98 0 00.246-.327A.877.877 0 0050 13v-2c0-.265-.12-.52-.333-.707a1.22 1.22 0 00-.804-.293H1.137zm0 10c-.15-.003-.3.021-.439.07-.14.05-.266.123-.372.217a.98.98 0 00-.246.327A.877.877 0 000 21v2c0 .265.12.52.333.707.213.187.502.293.804.293h47.726c.15.003.3-.021.439-.07.14-.05.266-.124.372-.217a.98.98 0 00.246-.327A.877.877 0 0050 23v-2c0-.265-.12-.52-.333-.707a1.22 1.22 0 00-.804-.293H1.137z" fill="#fff"/></svg><svg fill="none" viewBox="0 0 59 59" id="phone-icon" xmlns="http://www.w3.org/2000/svg"><path fill="#E5E5E5" d="M0 0h59v59H0z"/><path d="M30.04 20c-3.576 0-7.133.608-8.458 1.816a6.392 6.392 0 00-1.58 3.891 1.45 1.45 0 000 .164c0 .21.088.412.245.56a.86.86 0 00.591.232l3.24-.25h.082a.865.865 0 00.581-.237.748.748 0 00.235-.556v-1.574a.828.828 0 01.067-.335.866.866 0 01.198-.286.923.923 0 01.299-.19.963.963 0 01.353-.067h8.153c.246 0 .482.092.656.257a.856.856 0 01.271.621v1.555a.77.77 0 00.238.553c.152.148.36.234.578.239h.091l3.282.251a.876.876 0 00.59-.232.79.79 0 00.182-.257.755.755 0 00.064-.303 1.45 1.45 0 000-.164 6.455 6.455 0 00-1.56-3.863C37.195 20.608 33.618 20 30.041 20zm0 10.304c-.33 0-.653.093-.928.267-.275.174-.489.421-.615.71-.127.29-.16.608-.096.916.065.307.224.59.458.81.234.222.531.373.856.434.324.061.66.03.965-.09.306-.12.567-.323.75-.583a1.526 1.526 0 00-.204-2.003 1.669 1.669 0 00-.544-.343 1.742 1.742 0 00-.641-.118zm-1.253-3.544v-.966a.94.94 0 00-.298-.683 1.048 1.048 0 00-.72-.283c-.271 0-.53.102-.721.283a.94.94 0 00-.299.683v.966l-5.728 5.688a1.933 1.933 0 00-.471.647 1.844 1.844 0 00-.16.772v1.584c0 .421.175.825.488 1.123a1.73 1.73 0 001.183.47h.418v.966c0 .13.027.259.08.379.052.12.129.23.226.321.097.092.212.165.339.215a1.095 1.095 0 001.138-.215.988.988 0 00.226-.321.945.945 0 00.08-.379v-.965h10.905v.965c0 .263.11.515.306.7.196.186.461.29.738.29.277 0 .543-.104.739-.29a.964.964 0 00.306-.7v-.965h.418c.22 0 .438-.042.642-.122.203-.08.388-.198.543-.346a1.58 1.58 0 00.362-.517c.083-.193.126-.4.124-.609v-1.584a1.844 1.844 0 00-.155-.77 1.933 1.933 0 00-.467-.65l-5.646-5.687v-.966a.964.964 0 00-.305-.7 1.075 1.075 0 00-.74-.29c-.276 0-.542.105-.738.29a.964.964 0 00-.306.7v.966h-2.507zm1.254 1.931c.66 0 1.307.186 1.857.534.55.348.978.843 1.231 1.422.253.578.32 1.215.19 1.83a3.12 3.12 0 01-.915 1.621 3.403 3.403 0 01-1.711.867c-.649.122-1.32.06-1.931-.18a3.311 3.311 0 01-1.5-1.166 3.05 3.05 0 01-.564-1.76c0-.84.352-1.646.98-2.24a3.439 3.439 0 012.363-.928z" fill="#D22856"/></svg><svg fill="none" viewBox="0 0 59 59" id="phone-icon@2x" xmlns="http://www.w3.org/2000/svg"><path fill="#E5E5E5" d="M0 0h59v59H0z"/><path d="M30.04 20c-3.576 0-7.133.608-8.458 1.816a6.392 6.392 0 00-1.58 3.891 1.45 1.45 0 000 .164c0 .21.088.412.245.56a.86.86 0 00.591.232l3.24-.25h.082a.865.865 0 00.581-.237.748.748 0 00.235-.556v-1.574a.828.828 0 01.067-.335.866.866 0 01.198-.286.923.923 0 01.299-.19.963.963 0 01.353-.067h8.153c.246 0 .482.092.656.257a.856.856 0 01.271.621v1.555a.77.77 0 00.238.553c.152.148.36.234.578.239h.091l3.282.251a.876.876 0 00.59-.232.79.79 0 00.182-.257.755.755 0 00.064-.303 1.45 1.45 0 000-.164 6.455 6.455 0 00-1.56-3.863C37.195 20.608 33.618 20 30.041 20zm0 10.304c-.33 0-.653.093-.928.267-.275.174-.489.421-.615.71-.127.29-.16.608-.096.916.065.307.224.59.458.81.234.222.531.373.856.434.324.061.66.03.965-.09.306-.12.567-.323.75-.583a1.526 1.526 0 00-.204-2.003 1.669 1.669 0 00-.544-.343 1.742 1.742 0 00-.641-.118zm-1.253-3.544v-.966a.94.94 0 00-.298-.683 1.048 1.048 0 00-.72-.283c-.271 0-.53.102-.721.283a.94.94 0 00-.299.683v.966l-5.728 5.688a1.933 1.933 0 00-.471.647 1.844 1.844 0 00-.16.772v1.584c0 .421.175.825.488 1.123a1.73 1.73 0 001.183.47h.418v.966c0 .13.027.259.08.379.052.12.129.23.226.321.097.092.212.165.339.215a1.095 1.095 0 001.138-.215.988.988 0 00.226-.321.945.945 0 00.08-.379v-.965h10.905v.965c0 .263.11.515.306.7.196.186.461.29.738.29.277 0 .543-.104.739-.29a.964.964 0 00.306-.7v-.965h.418c.22 0 .438-.042.642-.122.203-.08.388-.198.543-.346a1.58 1.58 0 00.362-.517c.083-.193.126-.4.124-.609v-1.584a1.844 1.844 0 00-.155-.77 1.933 1.933 0 00-.467-.65l-5.646-5.687v-.966a.964.964 0 00-.305-.7 1.075 1.075 0 00-.74-.29c-.276 0-.542.105-.738.29a.964.964 0 00-.306.7v.966h-2.507zm1.254 1.931c.66 0 1.307.186 1.857.534.55.348.978.843 1.231 1.422.253.578.32 1.215.19 1.83a3.12 3.12 0 01-.915 1.621 3.403 3.403 0 01-1.711.867c-.649.122-1.32.06-1.931-.18a3.311 3.311 0 01-1.5-1.166 3.05 3.05 0 01-.564-1.76c0-.84.352-1.646.98-2.24a3.439 3.439 0 012.363-.928z" fill="#D22856"/></svg><svg fill="none" viewBox="0 0 74 23" id="pink" xmlns="http://www.w3.org/2000/svg"><path d="M0 1.55A1.29 1.29 0 011.26.26h7.13c5.06 0 8.39 2.7 8.39 7.13v.06c0 4.85-4.04 7.36-8.8 7.36H2.53v6.8A1.28 1.28 0 011.27 23 1.27 1.27 0 010 21.61V1.55zm8.07 10.97c3.7 0 6.14-2 6.14-4.99v-.06c0-3.2-2.4-4.87-5.96-4.87H2.6v9.88l5.48.04zM21.6 1.39A1.28 1.28 0 0122.85 0a1.27 1.27 0 011.27 1.39V21.6a1.28 1.28 0 01-1.26 1.4 1.27 1.27 0 01-1.27-1.39V1.4zm9.07.03A1.28 1.28 0 0131.93.17h.34a1.54 1.54 0 011.29.74l13.6 17.4V1.36A1.24 1.24 0 0148.39.12a1.23 1.23 0 011.23 1.24v20.3a1.14 1.14 0 01-1.15 1.17h-.13a1.7 1.7 0 01-1.31-.78L33.12 4.25v17.4a1.26 1.26 0 01-1.2 1.25 1.23 1.23 0 01-1.2-1.25V1.42h-.05zm25.27-.03A1.28 1.28 0 0157.2 0a1.27 1.27 0 011.26 1.39v12.3L71.23.54c.26-.27.62-.43 1-.45a1.27 1.27 0 011.21 1.26 1.29 1.29 0 01-.41.9l-7.95 7.9 8.57 10.52c.23.26.35.6.35.94a1.31 1.31 0 01-1.34 1.28 1.23 1.23 0 01-1-.58L63.3 11.86l-4.83 4.85v4.88a1.27 1.27 0 01-1.26 1.27 1.26 1.26 0 01-1.26-1.27V1.4h-.01z" fill="#283645"/></svg><svg fill="none" viewBox="0 0 15 15" id="radio-checked" xmlns="http://www.w3.org/2000/svg"><circle cx="7.5" cy="7.5" r="7.5" fill="#D22856"/></svg><svg fill="none" viewBox="0 0 22 41" id="right-arrow" xmlns="http://www.w3.org/2000/svg"><path opacity=".3" d="M19.959 20.497L.252 39.585A.822.822 0 000 40.17a.801.801 0 00.252.585A.86.86 0 00.86 41a.88.88 0 00.608-.245l20.28-19.664a.834.834 0 00.252-.59.811.811 0 00-.253-.59L1.468.239A.894.894 0 00.855 0a.878.878 0 00-.473.143.838.838 0 00-.313.372.81.81 0 00.183.902l19.707 19.08z" fill="#283645"/></svg><svg fill="none" viewBox="0 0 22 41" id="right-arrow-10" xmlns="http://www.w3.org/2000/svg"><path opacity=".1" d="M19.959 20.497L.252 39.585A.822.822 0 000 40.17a.801.801 0 00.252.585A.86.86 0 00.86 41a.88.88 0 00.608-.245l20.28-19.664a.834.834 0 00.252-.59.811.811 0 00-.253-.59L1.468.239A.894.894 0 00.855 0a.878.878 0 00-.473.143.838.838 0 00-.313.372.81.81 0 00.183.902l19.707 19.08z" fill="#283645"/></svg><svg fill="none" viewBox="0 0 22 41" id="right-arrow-60" xmlns="http://www.w3.org/2000/svg"><path opacity=".6" d="M19.959 20.497L.252 39.585A.822.822 0 000 40.17a.801.801 0 00.252.585A.86.86 0 00.86 41a.88.88 0 00.608-.245l20.28-19.664a.834.834 0 00.252-.59.811.811 0 00-.253-.59L1.468.239A.894.894 0 00.855 0a.878.878 0 00-.473.143.838.838 0 00-.313.372.81.81 0 00.183.902l19.707 19.08z" fill="#283645"/></svg><svg fill="none" viewBox="0 0 22 41" id="right_arrow@2x" xmlns="http://www.w3.org/2000/svg"><path opacity=".3" d="M19.959 20.497L.252 39.585A.822.822 0 000 40.17a.801.801 0 00.252.585A.86.86 0 00.86 41a.88.88 0 00.608-.245l20.28-19.664a.834.834 0 00.252-.59.811.811 0 00-.253-.59L1.468.239A.894.894 0 00.855 0a.878.878 0 00-.473.143.838.838 0 00-.313.372.81.81 0 00.183.902l19.707 19.08z" fill="#283645"/></svg><svg fill="none" viewBox="0 0 14 14" id="slider" xmlns="http://www.w3.org/2000/svg"><circle cx="7" cy="7" r="6" fill="#fff" stroke="#D22856" stroke-width="2"/></svg><svg fill="none" viewBox="0 0 14 14" id="slider-active" xmlns="http://www.w3.org/2000/svg"><circle cx="7" cy="7" r="7" fill="#D22856"/></svg><svg fill="none" viewBox="0 0 14 14" id="slider@2x" xmlns="http://www.w3.org/2000/svg"><circle cx="7" cy="7" r="6" fill="#fff" stroke="#D22856" stroke-width="2"/></svg><svg fill="none" viewBox="0 0 178 54" id="socials" xmlns="http://www.w3.org/2000/svg"><circle opacity=".1" cx="151" cy="27" r="25.5" fill="#fff" stroke="#283645" stroke-width="3"/><path d="M147.834 33.809a1.25 1.25 0 01-.638.19 1.256 1.256 0 01-.647-.16 1.096 1.096 0 01-.443-.457.973.973 0 01-.092-.603V22.221a.973.973 0 01.092-.603c.095-.189.249-.348.443-.458.194-.11.419-.165.647-.16.229.006.45.072.638.191l12.399 5.502c1.023.445 1.023 1.169 0 1.614l-12.399 5.502z" fill="#D22856"/><circle opacity=".1" cx="89" cy="27" r="25.5" fill="#fff" stroke="#283645" stroke-width="3"/><path d="M91.509 21.193H94V18h-2.98c-3.259.171-4.421 2.271-3.944 5.816H85v3.336h2.076V36h3.945v-8.848h2.958v-3.336H91.01c-.02-.998-.041-2.29.499-2.623z" fill="#D22856"/><circle opacity=".1" cx="27" cy="27" r="25.5" fill="#fff" stroke="#283645" stroke-width="3"/><path d="M29.564 20.169a3.675 3.675 0 012.108-.029c.688.197 1.291.59 1.723 1.123.71-.21 1.41-.447 2.131-.656a2.03 2.03 0 01-.253.917c-.157.284-.38.533-.653.729.253.026.508-.002.747-.081.24-.08.456-.208.633-.376-.099.414-.3.801-.588 1.131-.287.33-.654.594-1.07.772-.247 6.27-3.367 10.467-10.689 10.296h-.504c-.443 0-4.418-.428-5.149-1.75 1.752.245 3.539-.147 4.984-1.095-1.03-.286-2.852-.447-3.161-2.74.388.133.81.163 1.215.085-1.277-.79-2.698-1.456-2.616-3.502.398.306.905.462 1.421.438-.741-.228-2.09-3.121-.947-4.605 1.925 1.722 3.964 3.349 7.59 3.51.226-2.13 1.204-3.558 3.078-4.167z" fill="#D22856"/></svg><svg fill="none" viewBox="0 0 178 54" id="socials@2x" xmlns="http://www.w3.org/2000/svg"><circle opacity=".1" cx="151" cy="27" r="25.5" fill="#fff" stroke="#283645" stroke-width="3"/><path d="M147.834 33.809a1.25 1.25 0 01-.638.19 1.256 1.256 0 01-.647-.16 1.096 1.096 0 01-.443-.457.973.973 0 01-.092-.603V22.221a.973.973 0 01.092-.603c.095-.189.249-.348.443-.458.194-.11.419-.165.647-.16.229.006.45.072.638.191l12.399 5.502c1.023.445 1.023 1.169 0 1.614l-12.399 5.502z" fill="#D22856"/><circle opacity=".1" cx="89" cy="27" r="25.5" fill="#fff" stroke="#283645" stroke-width="3"/><path d="M91.509 21.193H94V18h-2.98c-3.259.171-4.421 2.271-3.944 5.816H85v3.336h2.076V36h3.945v-8.848h2.958v-3.336H91.01c-.02-.998-.041-2.29.499-2.623z" fill="#D22856"/><circle opacity=".1" cx="27" cy="27" r="25.5" fill="#fff" stroke="#283645" stroke-width="3"/><path d="M29.564 20.169a3.675 3.675 0 012.108-.029c.688.197 1.291.59 1.723 1.123.71-.21 1.41-.447 2.131-.656a2.03 2.03 0 01-.253.917c-.157.284-.38.533-.653.729.253.026.508-.002.747-.081.24-.08.456-.208.633-.376-.099.414-.3.801-.588 1.131-.287.33-.654.594-1.07.772-.247 6.27-3.367 10.467-10.689 10.296h-.504c-.443 0-4.418-.428-5.149-1.75 1.752.245 3.539-.147 4.984-1.095-1.03-.286-2.852-.447-3.161-2.74.388.133.81.163 1.215.085-1.277-.79-2.698-1.456-2.616-3.502.398.306.905.462 1.421.438-.741-.228-2.09-3.121-.947-4.605 1.925 1.722 3.964 3.349 7.59 3.51.226-2.13 1.204-3.558 3.078-4.167z" fill="#D22856"/></svg><svg fill="none" viewBox="0 0 18 14" id="twitter-pic" xmlns="http://www.w3.org/2000/svg"><path d="M11.56.17a3.67 3.67 0 012.11-.03c.69.2 1.3.59 1.72 1.12.72-.2 1.42-.44 2.14-.65-.01.32-.1.63-.26.91a2.2 2.2 0 01-.65.73A1.8 1.8 0 0018 1.8c-.1.41-.3.8-.59 1.13-.29.33-.65.6-1.07.77C16.1 9.97 12.97 14.17 5.65 14h-.5C4.7 14 .73 13.56 0 12.23a7.28 7.28 0 004.98-1.09c-1.03-.29-2.85-.45-3.16-2.74.4.13.81.16 1.22.08C1.76 7.71.34 7.04.42 5c.4.3.9.47 1.42.44C1.1 5.2-.25 2.31.9.83c1.92 1.72 3.96 3.34 7.59 3.5C8.7 2.22 9.69.79 11.56.18z" fill="#D22856"/></svg><svg fill="none" viewBox="0 0 15 13" id="youtube-pic" xmlns="http://www.w3.org/2000/svg"><path d="M1.83 12.8a1.25 1.25 0 01-1.28.04 1.1 1.1 0 01-.44-.46.97.97 0 01-.1-.6V1.22c-.03-.2 0-.41.1-.6C.2.42.35.27.55.16a1.26 1.26 0 011.28.03l12.4 5.5c1.03.45 1.03 1.17 0 1.62l-12.4 5.5z" fill="#D22856"/></svg></svg>