<svg width="43" height="47" fill="none" xmlns="http://www.w3.org/2000/svg"><path d="M34.9 14H8v19.2c0 1 .3 1.8 1 2.5.6.6 1.5 1 2.4 1.1v7.5c0 .7.4 1.4 1 2a3 3 0 004 0c.5-.6.8-1.3.9-2v-7.5h8.2v7.5c0 .7.4 1.4 1 2a3 3 0 004 0c.6-.6.9-1.3 1-2v-7.5a3.6 3.6 0 003.4-3.6V14.4l-.1-.3zM3 15.7a3 3 0 012 .9c.6.5.9 1.3.9 2V31a2.8 2.8 0 01-.9 2 3 3 0 01-2 1 3 3 0 01-2.1-1c-.6-.5-.9-1.2-.9-2V18.6a2.8 2.8 0 01.9-2 3 3 0 012-.9zM40 15.7a3 3 0 012.1.9c.6.5.9 1.3.9 2V31a2.8 2.8 0 01-.9 2 3 3 0 01-2 1 3 3 0 01-2.1-1c-.6-.5-.9-1.2-.9-2V18.6a2.8 2.8 0 01.9-2 3 3 0 012-.9zM8.2 12h26.5c0-2.7-1.2-5.3-3.2-7.2L34 .5a.3.3 0 000-.5.3.3 0 00-.5.1l-2.4 4.2A16.7 16.7 0 0021.5.9a17 17 0 00-9.6 3.4L9.5.2 9.3 0h-.2l-.2.2v.3l2.6 4.2c-2 2-3.3 4.6-3.3 7.4zm17.7-5.2c0-.3.1-.7.4-1a1.5 1.5 0 012.2 0 1.5 1.5 0 010 2.1 1.5 1.5 0 01-2.2 0c-.3-.3-.4-.7-.4-1zm-11.4 0c0-.3.2-.7.4-1a1.5 1.5 0 012.2 0 1.5 1.5 0 010 2.1A1.5 1.5 0 0115 8c-.2-.3-.4-.7-.4-1z" fill="#A4C639"/></svg>