<svg width="54" height="54" fill="none" xmlns="http://www.w3.org/2000/svg"><circle opacity=".1" cx="27" cy="27" r="25.5" fill="#fff" stroke="#283645" stroke-width="3"/><path d="M29.6 20.2c.6-.2 1.4-.3 2 0 .8.1 1.4.5 1.8 1l2.1-.6c0 .3 0 .6-.2 1l-.7.7a1.8 1.8 0 001.4-.5 3 3 0 01-1.7 1.9C34.1 30 31 34.2 23.7 34H23c-.4 0-4.4-.4-5.1-1.8 1.8.3 3.5-.1 5-1-1-.3-2.9-.5-3.2-2.8.4.1.8.2 1.2.1-1.2-.8-2.7-1.5-2.6-3.5.4.3 1 .5 1.4.4-.7-.2-2-3-.9-4.6 2 1.7 4 3.4 7.6 3.5.2-2 1.2-3.5 3-4.1z" fill="#D22856"/></svg>