<svg xmlns="http://www.w3.org/2000/svg">
<symbol viewBox="0 0 47 56" id="downloads__apple">
  <path d="M39.24 29.74c.01 2.41.75 4.77 2.13 6.79A12.67 12.67 0 0047 41.06a29.8 29.8 0 01-4 7.96c-2.4 3.42-4.9 6.82-8.84 6.9-3.94.1-5.1-2.21-9.53-2.21-4.44 0-5.8 2.15-9.46 2.29-3.67.13-6.7-3.72-9.1-7.12-4.95-6.9-8.75-19.63-3.66-28.2 1.2-2.07 2.93-3.8 5.03-5.03a14.49 14.49 0 016.93-1.98c3.73-.07 7.25 2.43 9.53 2.43 2.28 0 6.56-3.01 11.06-2.57 2.08.08 4.12.62 5.95 1.58 1.84.96 3.41 2.32 4.61 3.98-.27.16-6.3 3.57-6.24 10.65h-.04zm-7.26-20.8a12.07 12.07 0 003-8.94c-3.3.3-6.36 1.82-8.55 4.24-1.86 2.1-3.5 5.45-3.05 8.66 3.25.25 6.55-1.6 8.57-3.94" fill="#fff"/>
</symbol>
  <symbol viewBox="0 0 44 41" id="downloads__microsoft">
    <path d="M21 19.5H0V0h21v19.5z" fill="#F05423"/>
    <path d="M44 19.5H23V0h21v19.5z" fill="#84C441"/>
    <path d="M21 41H0V21.5h21V41z" fill="#2DABE2"/>
    <path d="M44 41H23V21.5h21V41z" fill="#F9BC15"/>
  </symbol>

  <symbol viewBox="0 0 43 47" id="downloads__android">
    <path d="M34.9 14H8v19.2c0 1 .3 1.8 1 2.5.6.6 1.5 1 2.4 1.1v7.5c0 .7.4 1.4 1 2a3 3 0 004 0c.5-.6.8-1.3.9-2v-7.5h8.2v7.5c0 .7.4 1.4 1 2a3 3 0 004 0c.6-.6.9-1.3 1-2v-7.5a3.6 3.6 0 003.4-3.6V14.4l-.1-.3zM3 15.7a3 3 0 012 .9c.6.5.9 1.3.9 2V31a2.8 2.8 0 01-.9 2 3 3 0 01-2 1 3 3 0 01-2.1-1c-.6-.5-.9-1.2-.9-2V18.6a2.8 2.8 0 01.9-2 3 3 0 012-.9zM40 15.7a3 3 0 012.1.9c.6.5.9 1.3.9 2V31a2.8 2.8 0 01-.9 2 3 3 0 01-2 1 3 3 0 01-2.1-1c-.6-.5-.9-1.2-.9-2V18.6a2.8 2.8 0 01.9-2 3 3 0 012-.9zM8.2 12h26.5c0-2.7-1.2-5.3-3.2-7.2L34 .5a.3.3 0 000-.5.3.3 0 00-.5.1l-2.4 4.2A16.7 16.7 0 0021.5.9a17 17 0 00-9.6 3.4L9.5.2 9.3 0h-.2l-.2.2v.3l2.6 4.2c-2 2-3.3 4.6-3.3 7.4zm17.7-5.2c0-.3.1-.7.4-1a1.5 1.5 0 012.2 0 1.5 1.5 0 010 2.1 1.5 1.5 0 01-2.2 0c-.3-.3-.4-.7-.4-1zm-11.4 0c0-.3.2-.7.4-1a1.5 1.5 0 012.2 0 1.5 1.5 0 010 2.1A1.5 1.5 0 0115 8c-.2-.3-.4-.7-.4-1z" fill="#A4C639"/>
  </symbol>
</svg>
