<?xml version="1.0" encoding="utf-8"?>
<svg xmlns="http://www.w3.org/2000/svg">
<symbol viewBox="0 0 47 56" id="downloads__apple">
  <path d="M39.24 29.74c.01 2.41.75 4.77 2.13 6.79A12.67 12.67 0 0047 41.06a29.8 29.8 0 01-4 7.96c-2.4 3.42-4.9 6.82-8.84 6.9-3.94.1-5.1-2.21-9.53-2.21-4.44 0-5.8 2.15-9.46 2.29-3.67.13-6.7-3.72-9.1-7.12-4.95-6.9-8.75-19.63-3.66-28.2 1.2-2.07 2.93-3.8 5.03-5.03a14.49 14.49 0 016.93-1.98c3.73-.07 7.25 2.43 9.53 2.43 2.28 0 6.56-3.01 11.06-2.57 2.08.08 4.12.62 5.95 1.58 1.84.96 3.41 2.32 4.61 3.98-.27.16-6.3 3.57-6.24 10.65h-.04zm-7.26-20.8a12.07 12.07 0 003-8.94c-3.3.3-6.36 1.82-8.55 4.24-1.86 2.1-3.5 5.45-3.05 8.66 3.25.25 6.55-1.6 8.57-3.94" fill="#fff"/>
</symbol>
  <symbol viewBox="0 0 44 41" id="downloads__microsoft">
    <path d="M21 19.5H0V0h21v19.5z" fill="#F05423"/>
    <path d="M44 19.5H23V0h21v19.5z" fill="#84C441"/>
    <path d="M21 41H0V21.5h21V41z" fill="#2DABE2"/>
    <path d="M44 41H23V21.5h21V41z" fill="#F9BC15"/>
  </symbol>

  <symbol viewBox="0 0 43 47" id="downloads__android">
    <path d="M34.9 14H8v19.2c0 1 .3 1.8 1 2.5.6.6 1.5 1 2.4 1.1v7.5c0 .7.4 1.4 1 2a3 3 0 004 0c.5-.6.8-1.3.9-2v-7.5h8.2v7.5c0 .7.4 1.4 1 2a3 3 0 004 0c.6-.6.9-1.3 1-2v-7.5a3.6 3.6 0 003.4-3.6V14.4l-.1-.3zM3 15.7a3 3 0 012 .9c.6.5.9 1.3.9 2V31a2.8 2.8 0 01-.9 2 3 3 0 01-2 1 3 3 0 01-2.1-1c-.6-.5-.9-1.2-.9-2V18.6a2.8 2.8 0 01.9-2 3 3 0 012-.9zM40 15.7a3 3 0 012.1.9c.6.5.9 1.3.9 2V31a2.8 2.8 0 01-.9 2 3 3 0 01-2 1 3 3 0 01-2.1-1c-.6-.5-.9-1.2-.9-2V18.6a2.8 2.8 0 01.9-2 3 3 0 012-.9zM8.2 12h26.5c0-2.7-1.2-5.3-3.2-7.2L34 .5a.3.3 0 000-.5.3.3 0 00-.5.1l-2.4 4.2A16.7 16.7 0 0021.5.9a17 17 0 00-9.6 3.4L9.5.2 9.3 0h-.2l-.2.2v.3l2.6 4.2c-2 2-3.3 4.6-3.3 7.4zm17.7-5.2c0-.3.1-.7.4-1a1.5 1.5 0 012.2 0 1.5 1.5 0 010 2.1 1.5 1.5 0 01-2.2 0c-.3-.3-.4-.7-.4-1zm-11.4 0c0-.3.2-.7.4-1a1.5 1.5 0 012.2 0 1.5 1.5 0 010 2.1A1.5 1.5 0 0115 8c-.2-.3-.4-.7-.4-1z" fill="#A4C639"/>
  </symbol>

  <symbol viewBox="0 0 238 276" id="clock">
    <path d="M211.31 81.63l4.28-4.29c6.16-6.17 7.29-15.15 2.5-19.94-4.8-4.79-13.76-3.68-19.91 2.5l-4.3 4.3a118.27 118.27 0 00-59.7-25.57v-7.67h6.13c8.7 0 15.84-6.97 15.84-15.48 0-8.5-7.13-15.48-15.84-15.48H97.72c-8.71 0-15.84 6.97-15.84 15.48 0 8.52 7.13 15.48 15.84 15.48h6.12v7.67a118.94 118.94 0 00-69.05 34 119.31 119.31 0 00-18.32 144.68 119.05 119.05 0 0058.38 50.19 118.84 118.84 0 0076.85 3.91 118.99 118.99 0 0063.18-43.99 119.28 119.28 0 00-3.57-145.8zm-92.3 163.32a87.9 87.9 0 01-48.88-14.85A88.23 88.23 0 0156.8 94.53a87.95 87.95 0 0195.89-19.1 88.01 88.01 0 0139.49 32.45 88.2 88.2 0 01-10.95 111.26 87.92 87.92 0 01-62.22 25.8z" fill="#DEDEDE"/>
    <circle cx="119" cy="157" r="93" stroke="#D22856" stroke-width="16"/>
    <path d="M115.9 191H68v-10.08l17.2-17.39c5.1-5.22 8.42-8.83 9.99-10.83a24.27 24.27 0 003.37-5.62c.69-1.72 1.03-3.5 1.03-5.35 0-2.75-.76-4.8-2.3-6.14-1.5-1.34-3.5-2.01-6.04-2.01-2.66 0-5.23.6-7.73 1.83a39.92 39.92 0 00-7.83 5.2l-7.88-9.33c3.38-2.87 6.17-4.9 8.4-6.1a30.07 30.07 0 017.26-2.71c2.62-.66 5.56-.99 8.81-.99 4.28 0 8.06.79 11.34 2.35a18.1 18.1 0 017.65 6.56 17.43 17.43 0 012.71 9.66c0 3.15-.56 6.12-1.68 8.9a33.4 33.4 0 01-5.16 8.49c-2.31 2.9-6.4 7.04-12.28 12.42l-8.81 8.3v.65h29.86V191zm56.4-14.2h-8.25V191h-14.16v-14.2h-29.25v-10.08l30.05-44.25h13.36v43.08h8.25v11.25zm-22.4-11.25v-11.63c0-1.94.07-4.75.22-8.44.16-3.68.29-5.82.38-6.42h-.38a52.2 52.2 0 01-4.17 7.5l-12.56 18.99h16.5z" fill="#D22856"/>
  </symbol>


  <!--<symbol viewBox="0 0 298 345" id="clock__desktop">
   <path d="M264.59 102.03l5.35-5.35c7.72-7.72 9.13-18.94 3.13-24.93-6-5.99-17.22-4.6-24.93 3.12l-5.4 5.39a148.2 148.2 0 00-74.72-31.97V38.7h7.66c10.9 0 19.84-8.7 19.84-19.34S186.59 0 175.68 0h-53.32c-10.91 0-19.84 8.7-19.84 19.36 0 10.64 8.93 19.34 19.84 19.34h7.66v9.59a149.01 149.01 0 00-128.84 129 148.93 148.93 0 0092.54 157.08 149.04 149.04 0 00175.33-50.1 148.94 148.94 0 00-4.46-182.23zM149.02 306.19a110.19 110.19 0 01-101.79-68 110.12 110.12 0 0180.3-150.17 110.2 110.2 0 01113.1 46.85 110.12 110.12 0 01-13.72 139.07 110.18 110.18 0 01-77.9 32.25z" fill="#DEDEDE"/>
    <circle cx="149" cy="196" r="117" stroke="#D22856" stroke-width="18"/>
    <path d="M145.13 239H85.25v-12.6l21.5-21.74c6.37-6.52 10.53-11.03 12.48-13.53a30.31 30.31 0 004.22-7.03 17.84 17.84 0 001.3-6.68c0-3.44-.97-6-2.88-7.68-1.87-1.68-4.4-2.52-7.56-2.52-3.32 0-6.54.76-9.67 2.29a49.85 49.85 0 00-9.78 6.5l-9.84-11.66c4.21-3.6 7.71-6.13 10.48-7.62a37.62 37.62 0 019.09-3.4 45.49 45.49 0 0111.01-1.23c5.35 0 10.08.98 14.18 2.94a22.63 22.63 0 019.55 8.2 21.79 21.79 0 013.4 12.07c0 3.94-.7 7.66-2.1 11.13a41.7 41.7 0 01-6.45 10.6c-2.9 3.64-8.01 8.81-15.36 15.53l-11.01 10.38v.82h37.32V239zm70.5-17.75H205.3V239h-17.7v-17.75h-36.56v-12.6l37.56-55.31h16.7v53.84h10.31v14.07zm-28.02-14.07v-14.53c0-2.42.1-5.94.3-10.55.2-4.6.35-7.28.47-8.02h-.47a65.26 65.26 0 01-5.22 9.37L167 207.18h20.62z" fill="#D22856"/>
  </symbol>-->
</svg>
