<svg width="145" height="40" fill="none" xmlns="http://www.w3.org/2000/svg">
  <path d="M71 18.55a1.29 1.29 0 011.26-1.29h7.13c5.06 0 8.39 2.7 8.39 7.13v.06c0 4.85-4.04 7.36-8.8 7.36h-5.44v6.8A1.28 1.28 0 0172.27 40 1.27 1.27 0 0171 38.61V18.55zm8.07 10.97c3.7 0 6.14-2 6.14-4.99v-.06c0-3.2-2.4-4.87-5.96-4.87H73.6v9.88l5.48.04zM92.6 18.39A1.28 1.28 0 0193.85 17a1.27 1.27 0 011.27 1.39V38.6A1.28 1.28 0 0193.86 40a1.27 1.27 0 01-1.27-1.39V18.4zM101.67 18.42a1.28 1.28 0 011.26-1.25h.34a1.53 1.53 0 011.29.74l13.6 17.4V18.36a1.24 1.24 0 011.23-1.24 1.23 1.23 0 011.23 1.24v20.3a1.16 1.16 0 01-.32.83 1.13 1.13 0 01-.83.34h-.13a1.69 1.69 0 01-1.31-.78l-13.91-17.8v17.4a1.26 1.26 0 01-1.2 1.25 1.23 1.23 0 01-1.2-1.25V18.42h-.05zM126.94 18.39A1.28 1.28 0 01128.2 17a1.27 1.27 0 011.26 1.39v12.3l12.76-13.14c.26-.27.62-.43 1-.45a1.27 1.27 0 011.21 1.26 1.3 1.3 0 01-.41.9l-7.95 7.9 8.57 10.52c.23.26.35.6.35.94a1.33 1.33 0 01-.4.92 1.29 1.29 0 01-.94.36 1.23 1.23 0 01-1-.58l-8.36-10.46-4.83 4.85v4.88a1.28 1.28 0 01-.78 1.17 1.26 1.26 0 01-1.74-1.17V18.4h-.01z" fill="#283645"/>
  <path fill-rule="evenodd" clip-rule="evenodd" d="M53.9 6.59l5.03 21.14a1.42 1.42 0 01-.75 1.72c-.2.09-.43.13-.65.11h-4.01a11.63 11.63 0 01-11.49 10.32c-5.92 0-10.8-4.5-11.49-10.32h-1.96A11.75 11.75 0 0116.97 40c-6 0-10.94-4.57-11.61-10.47H1.45A1.36 1.36 0 01.3 29a1.42 1.42 0 01-.24-1.27L5.1 6.6C5.46 4.26 7.64 0 13.5 0c.38 0 .76.16 1.03.44a1.5 1.5 0 010 2.1c-.27.27-.65.43-1.03.43-4.71 0-5.44 3.7-5.5 4.1L3.34 26.6h2.03a11.75 11.75 0 0111.6-10.3c5.94 0 10.84 4.48 11.6 10.3h1.99a11.63 11.63 0 0111.47-10.19c5.89 0 10.75 4.46 11.48 10.23v-.06h2.14L51 7.08c-.07-.41-.77-4.1-5.5-4.1-.39 0-.76-.17-1.03-.44a1.5 1.5 0 010-2.1c.27-.28.64-.44 1.03-.44 5.85 0 8.03 4.26 8.38 6.59zM25.66 29.56a9.12 9.12 0 00-.02-2.97 8.85 8.85 0 00-8.68-7.38 8.85 8.85 0 00-8.82 8.94 8.85 8.85 0 008.81 8.94c4.4 0 8.04-3.26 8.71-7.53zm24.94 0a8.75 8.75 0 00-8.58-10.23 8.75 8.75 0 00-8.58 10.23 8.73 8.73 0 008.58 7.4c4.33 0 7.91-3.2 8.58-7.4z" fill="#D22856"/>
</svg>
