<svg width="178" height="54" viewBox="0 0 178 54" fill="none" xmlns="http://www.w3.org/2000/svg">
<circle opacity="0.1" cx="151" cy="27" r="25.5" fill="white" stroke="#283645" stroke-width="3"/>
<path d="M147.834 33.8089C147.646 33.9278 147.425 33.9941 147.196 33.9996C146.968 34.0051 146.743 33.9495 146.549 33.8398C146.355 33.7301 146.201 33.571 146.106 33.3824C146.011 33.1938 145.979 32.984 146.014 32.779V22.221C145.979 22.016 146.011 21.8062 146.106 21.6176C146.201 21.429 146.355 21.2699 146.549 21.1602C146.743 21.0505 146.968 20.9949 147.196 21.0004C147.425 21.0059 147.646 21.0722 147.834 21.1911L160.233 26.6928C161.256 27.1382 161.256 27.8618 160.233 28.3072L147.834 33.8089Z" fill="#D22856"/>
<circle opacity="0.1" cx="89" cy="27" r="25.5" fill="white" stroke="#283645" stroke-width="3"/>
<path d="M91.5087 21.1932H94V18H91.0208C87.7612 18.1711 86.5986 20.2714 87.0761 23.8163H85V27.1521H87.0761V36H91.0208V27.1521H93.9792V23.8163H91.0104C90.9896 22.8184 90.9689 21.5259 91.5087 21.1932Z" fill="#D22856"/>
<circle opacity="0.1" cx="27" cy="27" r="25.5" fill="white" stroke="#283645" stroke-width="3"/>
<path d="M29.5641 20.1689C30.2458 19.9538 30.9837 19.9439 31.6719 20.1405C32.3602 20.3371 32.9633 20.7301 33.3947 21.2632C34.1053 21.0538 34.8055 20.816 35.5263 20.6066C35.5164 20.9258 35.4299 21.2391 35.2732 21.5237C35.1165 21.8084 34.8935 22.0574 34.6201 22.2528C34.8726 22.2788 35.1281 22.2511 35.3673 22.172C35.6064 22.0928 35.8228 21.9642 36 21.7961C35.901 22.2099 35.6999 22.597 35.4123 22.9271C35.1247 23.2572 34.7585 23.5214 34.3421 23.6992C34.095 29.9699 30.9748 34.1662 23.6533 33.9949H23.1487C22.7059 33.9949 18.7311 33.5667 18 32.2441C19.752 32.4899 21.5389 32.0976 22.984 31.1498C21.9542 30.8643 20.1316 30.7026 19.8227 28.4093C20.2108 28.5434 20.6321 28.5731 21.0378 28.495C19.7609 27.7052 18.3398 27.0391 18.4222 24.9933C18.8196 25.2988 19.3269 25.4551 19.8432 25.431C19.1018 25.2026 17.7529 22.3099 18.8959 20.8255C20.8215 22.5478 22.8604 24.1749 26.4851 24.3367C26.7117 22.2052 27.6899 20.7779 29.5641 20.1689Z" fill="#D22856"/>
</svg>
