<svg width="18" height="14" fill="none" xmlns="http://www.w3.org/2000/svg"><path d="M11.56.17a3.67 3.67 0 012.11-.03c.69.2 1.3.59 1.72 1.12.72-.2 1.42-.44 2.14-.65-.01.32-.1.63-.26.91a2.2 2.2 0 01-.65.73A1.8 1.8 0 0018 1.8c-.1.41-.3.8-.59 1.13-.29.33-.65.6-1.07.77C16.1 9.97 12.97 14.17 5.65 14h-.5C4.7 14 .73 13.56 0 12.23a7.28 7.28 0 004.98-1.09c-1.03-.29-2.85-.45-3.16-2.74.4.13.81.16 1.22.08C1.76 7.71.34 7.04.42 5c.4.3.9.47 1.42.44C1.1 5.2-.25 2.31.9.83c1.92 1.72 3.96 3.34 7.59 3.5C8.7 2.22 9.69.79 11.56.18z" fill="#D22856"/></svg>